<svg width="240" height="94" viewBox="0 0 240 94" fill="none" xmlns="http://www.w3.org/2000/svg">
<path d="M155.094 45.1583V42.3987H151.707V38.1067L151.593 38.1424L148.411 39.1276L148.348 39.1469V42.3987H143.327V40.587C143.327 39.7434 143.513 39.0978 143.881 38.6682C144.245 38.2422 144.767 38.0263 145.432 38.0263C145.91 38.0263 146.405 38.1402 146.904 38.3658L147.028 38.4224V35.5147L146.969 35.4931C146.505 35.3241 145.872 35.2392 145.088 35.2392C144.1 35.2392 143.202 35.4566 142.419 35.8877C141.648 36.3063 141.013 36.9423 140.589 37.7195C140.158 38.5028 139.94 39.4068 139.94 40.4076V42.3987H137.581V45.159H139.94V56.7871H143.325V45.159H148.347V52.5487C148.347 55.5919 149.766 57.1341 152.563 57.1341C153.024 57.1341 153.507 57.0797 154.001 56.9725C154.504 56.8638 154.846 56.7535 155.047 56.6374L155.093 56.6106V53.8249L154.955 53.9165C154.745 54.0525 154.516 54.154 154.275 54.2174C154.006 54.2941 153.78 54.3328 153.606 54.3328C152.951 54.3328 152.465 54.1541 152.165 53.8011C151.861 53.4452 151.706 52.8227 151.706 51.9522V45.1605H155.094V45.159H155.094V45.1583ZM130.022 54.332C128.793 54.332 127.824 53.9195 127.141 53.1071C126.454 52.291 126.106 51.1279 126.106 49.6484C126.106 48.1226 126.454 46.929 127.141 46.098C127.825 45.273 128.785 44.8545 129.995 44.8545C131.169 44.8545 132.104 45.2536 132.772 46.0436C133.445 46.8374 133.787 48.0221 133.787 49.5657C133.787 51.1287 133.466 52.3283 132.833 53.1317C132.204 53.9285 131.258 54.332 130.022 54.332ZM130.173 42.0517C127.828 42.0517 125.967 42.7465 124.638 44.1173C123.312 45.4896 122.638 47.3869 122.638 49.7593C122.638 52.0118 123.296 53.8235 124.59 55.1444C125.885 56.4646 127.648 57.1341 129.829 57.1341C132.102 57.1341 133.927 56.4296 135.255 55.0402C136.582 53.6507 137.253 51.7705 137.253 49.454C137.253 47.1658 136.623 45.3407 135.378 44.0287C134.132 42.7167 132.38 42.0517 130.173 42.0517ZM117.18 42.0517C115.585 42.0517 114.266 42.4642 113.258 43.2781C112.244 44.0972 111.729 45.1709 111.729 46.4703C111.729 47.1464 111.84 47.7458 112.059 48.2544C112.279 48.7652 112.618 49.215 113.07 49.5918C113.519 49.9671 114.212 50.3587 115.128 50.7571C115.899 51.078 116.474 51.3498 116.84 51.5643C117.197 51.7743 117.451 51.9842 117.594 52.1898C117.733 52.3908 117.803 52.6663 117.803 53.0059C117.803 53.9724 117.087 54.443 115.615 54.443C115.07 54.443 114.446 54.3276 113.765 54.1019C113.088 53.877 112.449 53.5486 111.87 53.128L111.73 53.0267V56.3246L111.781 56.35C112.26 56.5733 112.864 56.7625 113.576 56.9099C114.286 57.0588 114.932 57.1348 115.493 57.1348C117.223 57.1348 118.617 56.72 119.633 55.9002C120.657 55.0767 121.176 53.9776 121.176 52.6321C121.176 51.664 120.897 50.8316 120.347 50.1599C119.8 49.495 118.85 48.8851 117.528 48.3445C116.474 47.9164 115.798 47.5612 115.52 47.2887C115.253 47.0243 115.115 46.652 115.115 46.1799C115.115 45.7614 115.283 45.4271 115.629 45.1553C115.978 44.882 116.462 44.7435 117.071 44.7435C117.635 44.7435 118.212 44.8336 118.785 45.0101C119.359 45.1866 119.863 45.4226 120.283 45.7123L120.421 45.8083V42.6787L120.369 42.6564C119.98 42.4873 119.469 42.3436 118.847 42.226C118.297 42.1171 117.739 42.0588 117.18 42.0517H117.18ZM102.904 54.332C101.675 54.332 100.705 53.9195 100.023 53.1071C99.3357 52.291 98.9882 51.1279 98.9882 49.6484C98.9882 48.1226 99.3357 46.929 100.023 46.098C100.706 45.273 101.665 44.8545 102.877 44.8545C104.05 44.8545 104.984 45.2536 105.654 46.0436C106.327 46.8374 106.668 48.0221 106.668 49.5657C106.668 51.1287 106.348 52.3283 105.714 53.1317C105.085 53.9285 104.139 54.332 102.904 54.332ZM103.054 42.0517C100.708 42.0517 98.8462 42.7465 97.5199 44.1173C96.1921 45.4896 95.519 47.3869 95.519 49.7593C95.519 52.0125 96.1775 53.8235 97.4709 55.1444C98.7658 56.4654 100.529 57.1341 102.71 57.1341C104.983 57.1341 106.809 56.4296 108.136 55.0402C109.462 53.6507 110.135 51.7705 110.135 49.454C110.135 47.1658 109.505 45.3407 108.258 44.0287C107.014 42.7167 105.263 42.0517 103.054 42.0517ZM90.3797 44.8902V42.398H87.0349V56.7863H90.3797V49.4257C90.3797 48.1747 90.6606 47.1457 91.2137 46.3698C91.7602 45.6028 92.4889 45.2134 93.3777 45.2134C93.6784 45.2134 94.0171 45.264 94.3836 45.3631C94.7465 45.4628 95.0091 45.5693 95.1635 45.6825L95.3032 45.7853V42.3727L95.2491 42.3503C94.9374 42.2163 94.497 42.1478 93.9396 42.1478C93.0983 42.1478 92.3469 42.4211 91.7024 42.9594C91.1362 43.4322 90.7287 44.0808 90.4156 44.8895H90.3797V44.8902ZM81.0463 42.0517C79.5121 42.0517 78.1426 42.3846 76.9787 43.0413C75.8318 43.679 74.8981 44.6508 74.2975 45.8322C73.6859 47.0243 73.3757 48.416 73.3757 49.9671C73.3757 51.3267 73.6756 52.574 74.2711 53.6738C74.846 54.7542 75.7146 55.6431 76.7731 56.2338C77.8383 56.8302 79.0681 57.1333 80.4295 57.1333C82.0193 57.1333 83.3756 56.8131 84.4634 56.1772L84.5074 56.1519V53.0513L84.3684 53.154C83.8674 53.5219 83.316 53.8126 82.7318 54.0171C82.1407 54.2256 81.6001 54.3305 81.1282 54.3305C79.8158 54.3305 78.7623 53.9158 77.9985 53.0967C77.2318 52.2754 76.8426 51.1235 76.8426 49.6744C76.8426 48.215 77.2486 47.034 78.0468 46.162C78.8435 45.2931 79.8991 44.8515 81.1838 44.8515C82.2826 44.8515 83.3544 45.2283 84.3676 45.9722L84.5074 46.0757V42.8075L84.462 42.7814C84.0808 42.5655 83.5622 42.3868 82.9147 42.252C82.3 42.1217 81.6741 42.0544 81.0463 42.051V42.0517ZM71.0719 42.3987H67.7272V56.7871H71.0719V42.398V42.3987ZM69.4332 36.269C68.9041 36.2605 68.3929 36.4637 68.0096 36.8349C67.8171 37.0131 67.6642 37.2311 67.5611 37.4744C67.458 37.7176 67.4071 37.9804 67.4119 38.2452C67.4119 38.7962 67.6109 39.2624 68.0023 39.6302C68.3922 39.9951 68.8736 40.1805 69.4339 40.1805C69.9943 40.1805 70.4764 39.9958 70.8715 39.6295C71.0639 39.4567 71.2171 39.2435 71.3205 39.0044C71.4238 38.7654 71.4748 38.5063 71.4699 38.2452C71.4699 37.7054 71.2746 37.2355 70.8883 36.8498C70.502 36.4641 70.0126 36.269 69.4339 36.269H69.4332ZM61.0889 41.3369H60.9791L54.9217 56.7863H52.5016L46.3483 41.3354H46.2386V56.7863H43.0306V36.709H47.9468L53.7745 51.6224L59.7786 36.709H64.5024V56.7871H61.0889V41.3361V41.3369ZM15.734 45.9223H0V30H15.7326V45.9223H15.734ZM33.1046 45.9223H17.372V30H33.1046V45.9223ZM15.7333 63.508H0V47.5858H15.7333V63.508ZM33.1046 63.508H17.372V47.5858H33.1046V63.508Z" fill="#B5B5B5"/>
</svg>
