<svg width="240" height="94" viewBox="0 0 240 94" fill="none" xmlns="http://www.w3.org/2000/svg">
<path d="M67.2719 37.287C67.2719 38.6952 66.1209 39.8292 64.6928 39.8292C64.3541 39.8299 64.0185 39.7647 63.7054 39.6371C63.3922 39.5096 63.1077 39.3224 62.8682 39.0862C62.6286 38.85 62.4388 38.5695 62.3094 38.2607C62.1801 37.952 62.1139 37.6211 62.1146 37.287C62.1146 35.8789 63.2258 34.7448 64.6928 34.7448C66.1617 34.7841 67.2719 35.9181 67.2719 37.287ZM56.6412 42.4116V43.0376C56.6412 43.0376 55.4123 41.4723 52.7943 41.4723C48.4701 41.4723 45.0977 44.719 45.0977 49.2167C45.0977 53.6761 48.4311 56.9612 52.7943 56.9612C55.4522 56.9612 56.6412 55.3575 56.6412 55.3575V56.0228C56.6412 56.3353 56.8803 56.5693 57.1972 56.5693H60.4094V41.8625H57.1972C57.0506 41.8661 56.911 41.9252 56.8075 42.0276C56.7039 42.1301 56.6444 42.2679 56.6412 42.4125V42.4116ZM56.6412 51.8375C56.0471 52.6983 54.8563 53.4413 53.4291 53.4413C50.8898 53.4413 48.9455 51.8768 48.9455 49.2167C48.9455 46.5567 50.8898 44.9922 53.4291 44.9922C54.8173 44.9922 56.087 45.7745 56.6412 46.596V51.8375ZM62.7902 41.8634H66.5973V56.571H62.7902V41.8625V41.8634ZM119.676 41.4714C117.057 41.4714 115.827 43.0367 115.827 43.0367V34.7841H112.019V56.571H115.233C115.379 56.5679 115.518 56.5091 115.622 56.4069C115.725 56.3047 115.784 56.167 115.787 56.0228V55.3584C115.787 55.3584 117.018 56.9621 119.635 56.9621C123.959 56.9621 127.33 53.677 127.33 49.2185C127.33 44.7583 123.959 41.4714 119.675 41.4714H119.676ZM119.04 53.402C117.572 53.402 116.422 52.6599 115.826 51.7982V46.5567C116.422 45.7745 117.691 44.953 119.04 44.953C121.579 44.953 123.522 46.5174 123.522 49.1783C123.522 51.8375 121.579 53.402 119.04 53.402ZM110.036 47.8487V56.6094H106.227V48.2791C106.227 45.8548 105.433 44.8761 103.293 44.8761C102.143 44.8761 100.952 45.4628 100.197 46.3236V56.5728H96.3902V41.8625H99.404C99.7218 41.8625 99.96 42.1366 99.96 42.4107V43.0367C101.07 41.9018 102.538 41.4714 104.006 41.4714C105.672 41.4714 107.061 41.9411 108.171 42.8796C109.519 43.9752 110.036 45.3834 110.036 47.847V47.8487ZM87.146 41.4714C84.5288 41.4714 83.299 43.0367 83.299 43.0367V34.7841H79.491V56.571H82.7031C82.8497 56.5681 82.9894 56.5094 83.093 56.4072C83.1967 56.305 83.2562 56.1672 83.2591 56.0228V55.3584C83.2591 55.3584 84.4898 56.9621 87.107 56.9621C91.4312 56.9621 94.8027 53.677 94.8027 49.2185C94.8425 44.7583 91.4701 41.4714 87.146 41.4714ZM86.5111 53.402C85.0441 53.402 83.894 52.6599 83.299 51.7982V46.5567C83.894 45.7745 85.1636 44.953 86.5111 44.953C89.0504 44.953 90.9938 46.5174 90.9938 49.1783C90.9938 51.8375 89.0504 53.402 86.5111 53.402ZM76.1974 41.4714C77.3475 41.4714 77.9425 41.6678 77.9425 41.6678V45.1485C77.9425 45.1485 74.7693 44.0922 72.786 46.3227V56.6094H68.9772V41.8625H72.1911C72.3372 41.8656 72.4765 41.9243 72.5798 42.0263C72.6831 42.1283 72.7424 42.2658 72.7453 42.4099V43.0358C73.4607 42.2143 75.0074 41.4705 76.1974 41.4705V41.4714ZM36.6477 55.2405C36.4502 54.7709 36.2519 54.2628 36.0536 53.8324C35.7348 53.1287 35.4179 52.4635 35.1416 51.8375L35.1018 51.7982C32.3241 45.8367 29.4009 39.9422 26.3348 34.1197L26.2153 33.884C25.8904 33.2755 25.5734 32.6618 25.2644 32.0455C24.8669 31.3409 24.4711 30.5989 23.8363 29.8944C22.5667 28.3291 20.7419 27.4683 18.7985 27.4683C16.8153 27.4683 15.0295 28.3291 13.7209 29.8158C13.1259 30.5194 12.6894 31.2624 12.2928 31.9669C11.9829 32.5832 11.6659 33.1961 11.3419 33.8055L11.2223 34.0412C8.16779 39.9078 5.19293 45.853 2.45535 51.7197L2.41551 51.7982C2.13839 52.4242 1.82054 53.0894 1.50357 53.7922C1.29129 54.2557 1.09288 54.7253 0.908598 55.2004C0.392424 56.6478 0.233942 58.0167 0.432266 59.4258C0.644799 60.8568 1.23233 62.2085 2.13681 63.3471C3.04128 64.4858 4.2314 65.3721 5.58958 65.9184C6.60653 66.3394 7.69966 66.5524 8.80261 66.5443C9.11957 66.5443 9.51622 66.5059 9.83407 66.4657C11.1435 66.3095 12.492 65.8799 13.8006 65.137C15.4279 64.2369 16.9746 62.9457 18.7197 61.0688C20.4657 62.9457 22.0523 64.2369 23.6388 65.137C24.9492 65.8799 26.2967 66.3095 27.6053 66.4657C27.9232 66.5059 28.3198 66.5443 28.6377 66.5443C29.7479 66.5443 30.8582 66.3496 31.8498 65.9184C34.6272 64.8227 36.5706 62.3198 37.0071 59.4258C37.3223 58.0569 37.1638 56.688 36.6486 55.2405H36.6477ZM18.7587 57.2747C16.616 54.6146 15.2278 52.1117 14.7523 49.9998C14.554 49.1006 14.5133 48.3175 14.6328 47.6139C14.7107 47.0244 14.9282 46.4613 15.2676 45.97C16.022 44.9145 17.2907 44.2502 18.7587 44.2502C20.2266 44.2502 21.5361 44.8753 22.2497 45.97C22.5675 46.4397 22.8057 46.9879 22.8854 47.6139C23.004 48.3184 22.9642 49.1391 22.7659 49.9998C22.2878 52.0724 20.9004 54.5762 18.7587 57.2747ZM34.5856 59.1132C34.3076 61.1473 32.9194 62.9073 30.976 63.6895C30.0242 64.0807 28.9927 64.1985 27.9612 64.0807C26.9696 63.9628 25.978 63.6503 24.9465 63.0636C23.5184 62.2805 22.0912 61.0688 20.424 59.2695C23.0421 56.1013 24.6296 53.2064 25.2246 50.6258C25.4827 49.5363 25.5495 48.4113 25.422 47.2996C25.2752 46.3444 24.9091 45.4349 24.3516 44.6404C23.1209 42.8796 21.058 41.8634 18.7578 41.8634C16.4576 41.8634 14.3946 42.9197 13.1649 44.6395C12.6069 45.4345 12.2405 46.3446 12.0935 47.3005C11.926 48.4105 11.9936 49.5428 12.2919 50.6258C12.8868 53.2064 14.5142 56.1397 17.0915 59.3079C15.4651 61.1081 13.9971 62.3198 12.569 63.1029C11.5375 63.6895 10.5468 64.0021 9.55518 64.1199C8.53298 64.2323 7.49839 64.0981 6.54047 63.7288C4.59707 62.9466 3.20792 61.1857 2.9308 59.1516C2.80009 58.1214 2.92246 57.0752 3.2876 56.1013C3.40624 55.7102 3.60545 55.3191 3.80378 54.8494C4.0809 54.2235 4.39786 53.5582 4.71571 52.8939L4.75556 52.8153C7.5281 46.8965 10.4379 41.0411 13.4827 35.2538L13.6013 35.0181C13.9192 34.4323 14.2362 33.8063 14.5531 33.2197C14.871 32.5937 15.2278 32.0062 15.6643 31.4981C16.4965 30.5596 17.6077 30.0506 18.8375 30.0506C20.0681 30.0506 21.1784 30.5596 22.0115 31.4981C22.448 32.0079 22.8048 32.5946 23.1218 33.2197C23.4405 33.8063 23.7575 34.4323 24.0736 35.0181L24.1931 35.2538C27.201 41.0662 30.0973 46.9342 32.8804 52.8546V52.8939C33.1982 53.5207 33.4754 54.2243 33.7923 54.8512C33.9915 55.3191 34.1899 55.7102 34.3085 56.1022C34.6255 57.1175 34.7441 58.0962 34.5856 59.1132Z" fill="#B5B5B5"/>
</svg>
