<svg width="240" height="94" viewBox="0 0 240 94" fill="none" xmlns="http://www.w3.org/2000/svg">
<path d="M152.512 46.3497C153.69 45.7796 154.465 44.6549 154.412 43.3189C154.423 42.8958 154.346 42.475 154.185 42.0819C154.024 41.6889 153.782 41.3319 153.475 41.0327C153.168 40.7334 152.802 40.4982 152.398 40.3412C151.995 40.1843 151.563 40.109 151.129 40.1198C150.608 40.0683 150.147 40.1679 149.747 40.289L131.432 47.3603C130.21 47.9278 129.361 49.0963 129.358 50.391C129.361 52.2713 130.871 53.7438 132.814 53.7576C133.294 53.7409 133.765 53.6263 134.197 53.421L152.512 46.3497ZM0.460938 41.6361V57.6306H12.556V53.925H5.29826V51.4007H12.2097V47.6968H5.29826V45.3391H12.5551V41.6352H0.460938V41.6361ZM31.7353 41.6361H36.3999V57.6306H31.7353V41.6352V41.6361ZM27.2424 49.5488C28.2901 48.6833 28.9324 47.4624 28.9703 46.0131C28.9324 43.6718 26.9164 41.7073 24.4784 41.6352H15.6663V57.6306H20.5037V45.3391H22.9232C23.762 45.2894 24.4246 45.9127 24.4784 46.6871C24.4535 47.081 24.2817 47.4525 23.9952 47.7315C23.7088 48.0104 23.3275 48.1777 22.9232 48.2017H20.5037V51.7373H22.9232L25.1692 57.6306H29.8347L27.2424 50.7276C27.1975 50.5894 27.1305 50.5009 27.0697 50.3902C26.86 50.2382 26.7173 49.8338 27.2424 49.5488ZM97.7387 41.6352V57.6306H102.576V49.0439L107.761 57.6298H112.944V41.6361H108.279V50.0545L103.268 41.6361H97.7387V41.6352ZM88.0623 44.666C89.9259 44.7433 91.4079 46.9095 91.3454 49.5488C91.407 52.2516 89.9268 54.4169 88.0623 54.4315C86.271 54.4169 84.7899 52.2516 84.7802 49.5488C84.7899 46.9095 86.271 44.7442 88.0623 44.666V41.1304C83.6708 41.1475 80.0812 44.9227 80.1147 49.5488C80.0812 54.2375 83.6708 58.0135 88.0623 57.9672C92.526 58.0135 96.1166 54.2375 96.1836 49.5488C96.1166 44.9227 92.5269 41.1475 88.0623 41.1304V44.666ZM38.1277 49.3796C38.1542 56.8579 45.263 57.9105 46.5953 57.9672C47.783 57.9105 49.673 57.8229 52.1234 57.1258V53.421C47.6931 55.2798 43.1034 54.2281 43.1386 49.3805C43.1034 44.5819 47.9628 43.179 51.778 45.8449V41.9726C49.6721 40.987 47.6931 41.1621 46.4217 41.1304C45.1731 41.1621 38.1542 41.9512 38.1277 49.3805V49.3796ZM64.7374 45.3391V42.1409C63.2836 41.4695 61.0103 41.4249 59.7256 41.4669C58.3115 41.4249 54.8029 41.9512 54.0248 44.4977C53.3622 47.0374 54.1729 49.7557 56.9616 50.5593C59.7512 51.5098 61.5513 52.0361 60.9354 53.5901C60.4711 55.0171 56.7818 54.5784 54.5429 53.7576L54.0239 57.1249C56.9616 57.8229 59.931 57.9989 62.1452 57.4615C64.4308 56.7712 65.6908 55.0171 65.9463 53.2527C66.2309 51.3338 65.6009 49.317 63.5277 48.5391C61.2808 47.7389 60.7416 47.7389 59.2075 47.0228C57.6823 46.336 58.2225 44.4943 60.59 44.4977C61.9117 44.4067 63.5312 44.8446 64.7365 45.3391H64.7374ZM152.512 37.2582C153.69 36.6597 154.465 35.5359 154.412 34.2274C154.465 32.4192 152.955 30.9484 151.129 31.0283C150.608 30.9484 150.147 31.048 149.747 31.1966L131.432 38.2679C130.21 38.8088 129.361 39.9764 129.358 41.2987C129.361 43.1523 130.871 44.6239 132.814 44.666C133.29 44.6224 133.756 44.5089 134.197 44.3295L152.512 37.2582ZM78.2141 45.3391V42.1409C76.6924 41.4695 74.42 41.4249 73.0305 41.4669C71.7203 41.4249 68.2108 41.9512 67.5015 44.4977C66.7702 47.0374 67.5808 49.7557 70.4391 50.5593C73.16 51.5098 74.9593 52.0361 74.413 53.5901C73.8799 55.0171 70.1907 54.5784 68.0196 53.7576L67.5015 57.1249C70.3704 57.8229 73.3398 57.9989 75.6219 57.4615C77.8396 56.7712 79.0996 55.0171 79.4239 53.2527C79.6397 51.3338 79.0097 49.317 76.8316 48.5391C74.6905 47.7389 74.1504 47.7389 72.6851 47.0228C71.0903 46.336 71.6304 44.4943 74.0676 44.4977C75.3196 44.4067 76.94 44.8446 78.2141 45.3391ZM152.512 55.4412C153.69 54.8995 154.465 53.7747 154.412 52.4104C154.465 50.6589 152.955 49.1882 151.129 49.2122C150.608 49.1882 150.147 49.2869 149.747 49.5488L131.432 56.6201C130.21 57.0476 129.361 58.2153 129.358 59.6509C129.361 61.3921 130.871 62.8628 132.814 62.8499C133.298 62.8599 133.775 62.7434 134.197 62.5125L152.512 55.4412Z" fill="#B5B5B5"/>
</svg>
