<svg width="240" height="94" viewBox="0 0 240 94" fill="none" xmlns="http://www.w3.org/2000/svg">
<path fill-rule="evenodd" clip-rule="evenodd" d="M108.286 45.2223C108.505 45.2223 108.68 45.2667 108.812 45.4443C108.68 49.308 105.133 51.7061 105.133 55.5692C105.264 55.7023 105.352 55.8799 105.527 55.7911C108.374 52.6384 111.177 48.1531 115.337 46.8212C116.432 46.7324 117.424 47.6982 117.833 48.4195C119.278 51.3503 118.928 55.4804 116.913 58.1448C114.833 60.7609 111.22 63.3854 107.104 62.9408C105.396 67.2041 104.214 71.6894 103.556 76.3522C103.207 77.2846 102.374 76.441 101.849 76.2635C98.3018 73.4215 101.214 65.898 101.455 64.9393C101.695 63.9806 102.644 61.7235 103.337 59.8325C101.674 56.8129 102.724 53.1711 104.082 50.3735C105.133 48.5083 106.578 46.643 108.286 45.2223ZM39.7505 37.5843C43.7911 40.9339 49.034 46.643 48.3773 53.2155C47.5892 58.4111 42.1591 62.3193 37.5608 63.563C33.0939 64.8949 27.488 64.7617 22.9335 63.6962C22.627 64.5397 22.3205 65.5608 21.3573 65.916C20.7438 66.138 19.9557 66.0054 19.4741 65.6052C18.1163 64.3177 19.2114 61.8309 17.2406 61.0311C13.3866 59.3885 9.22614 56.1463 7.25599 52.15C6.9933 51.3503 7.29977 50.5511 7.78136 49.9296C10.8029 47.4872 14.6131 46.5105 18.4227 45.7551C18.6416 45.8439 18.5541 45.5331 18.7292 45.4443C18.9487 42.7799 19.0363 40.0711 19.8681 37.6731C20.0579 37.3359 20.5249 37.2291 20.8313 37.4511C23.2406 39.3157 22.1016 42.8243 23.1524 45.3555C27.7507 45.5775 32.3496 45.7995 35.9841 48.4195C37.2099 49.4412 37.5094 51.3914 37.1224 52.5052C36.7359 53.619 35.4587 54.4149 34.276 54.5037C33.4879 54.5037 31.9987 54.5809 32.0863 53.9703C32.1738 53.3597 34.7652 52.3604 33.9695 51.5285C32.8255 50.3311 27.1015 49.6188 23.554 49.1749C23.1162 49.0861 22.7146 49.2193 22.7146 49.7076C22.627 53.0823 22.3643 56.8129 22.9335 60.0544C22.9772 60.2764 23.2406 60.5428 23.4595 60.5872C29.7214 61.6089 36.3343 61.0311 41.2391 57.39C43.5163 55.5248 44.2612 52.9048 43.8666 50.0184C41.8958 41.9808 33.6192 37.1403 26.8312 34.0313C20.2184 31.1006 12.905 29.5905 5.0663 29.9907C3.81822 30.0827 1.83982 30.5196 1.82522 30.9674C1.81063 31.4152 4.06631 31.2743 3.79601 32.1217C3.52634 32.9697 1.23449 32.4665 0.555568 32.2549C-0.123357 32.0445 -0.0580028 31.0562 0.117756 30.4346C1.82522 27.3707 6.59166 27.1223 8.74455 27.0149C20.6562 26.7041 32.1738 31.3039 39.7505 37.5843ZM100.622 45.8883C101.148 45.9957 101.849 47.0432 102.287 47.7091C102.498 48.0682 102.717 48.6228 102.287 48.8634C100.316 49.752 97.6444 49.3524 95.3672 49.6188C94.7542 50.1516 94.2727 51.0395 94.4916 51.8393C94.7105 51.9724 94.9078 52.1758 95.1483 52.15C96.5499 52.2388 98.6514 51.4841 99.5714 52.816C99.798 53.2117 99.5423 54.6922 98.9147 54.7256C97.2066 54.9476 94.3964 54.5069 93.5722 54.9476C92.5208 55.6579 92.6083 57.0349 92.2143 58.1448C92.9586 58.6331 93.7397 58.1338 94.6229 58.0116C96.2434 57.7452 98.0385 57.2568 99.659 57.612C99.9655 58.1892 100.403 58.8113 100.097 59.5217C97.338 61.7421 93.7765 64.0179 89.9808 62.4081C88.5576 61.7601 87.9225 59.5661 88.4041 57.7008C88.7105 56.3683 90.0684 55.0808 89.2365 53.6595C89.1052 53.0379 89.4555 52.5052 89.9808 52.372C91.4256 52.372 91.1191 50.5511 91.8641 49.7076C91.0316 48.7746 88.9295 48.8197 89.149 46.9544C90.156 46.4217 91.3818 46.5992 92.5208 46.4217C95.1045 45.8883 97.9947 45.5775 100.622 45.8883ZM52.3627 45.6663C53.414 46.1997 53.5892 47.2652 53.6329 48.3307C54.027 52.594 54.2459 56.5465 54.1583 61.0311C54.0707 61.6089 53.414 61.7421 52.9756 61.9641C52.2751 62.0973 51.3703 61.9454 51.0924 61.5645C50.0854 59.9212 50.4356 57.7008 50.3481 55.7023C50.4794 52.5496 50.4356 49.1305 51.3113 46.1997C51.4794 45.7737 51.9686 45.3999 52.3627 45.6663ZM82.3166 43.0019C84.2874 43.8898 85.1199 45.9771 85.9955 47.7091C87.3971 51.1733 88.5792 56.6353 85.9955 59.9656C85.295 60.7648 84.0685 61.5015 83.2804 60.898C80.3902 58.5443 79.1637 55.1696 77.368 52.15C77.1054 52.0168 77.1054 52.372 76.974 52.5052C76.3173 55.5692 77.5438 59.5661 75.4855 61.9641C74.6968 62.0973 73.9601 61.6861 73.6898 60.898C72.6822 57.7452 73.7336 54.4593 73.9963 51.3065C74.6092 49.7076 74.8725 47.8423 76.2297 46.643C78.4194 47.5316 79.4702 50.0184 80.7405 51.8393C81.6599 53.2155 82.4041 54.77 83.4555 56.0138C84.3749 55.6136 83.9225 54.3962 83.8933 53.6595C83.5431 50.7731 82.755 48.1087 82.0101 45.3555C81.967 44.6452 81.5723 43.4459 82.3166 43.0019ZM71.8941 45.9771C72.2444 46.1103 72.6384 46.2434 72.7697 46.643C72.7697 47.3096 72.2444 48.1422 71.8066 48.2419C67.6023 48.9085 62.9165 48.5083 58.9755 49.8408C58.8442 50.3292 59.4133 50.4179 59.7198 50.5511C63.0916 51.0839 66.6391 51.2171 69.9233 52.0612C71.6606 52.5084 72.2882 54.5924 72.4195 56.3245C72.5001 57.6899 71.9817 59.3441 70.6683 60.2764C67.4272 62.3637 62.4786 62.2749 59.1944 60.3652C57.9387 59.651 56.742 58.4999 56.6545 57.0793C56.6615 55.9501 57.1361 55.0621 57.9241 54.6368C61.077 53.3487 64.9748 54.059 67.6899 55.7023C67.865 56.5909 66.9164 56.5426 66.464 56.8573C63.4425 58.6331 61.1646 54.8588 58.3619 56.2351C57.9679 56.5021 57.6837 57.2459 58.1437 57.4788C61.603 59.0333 65.4564 57.9228 68.8726 56.9461C69.2666 56.8129 69.7482 56.4133 69.792 56.0138C69.6607 54.5924 68.0839 54.281 67.0769 53.8815C64.0992 53.1267 60.8143 53.1267 57.6177 52.816C57.0047 52.6828 56.2236 52.2498 56.0409 51.7505C55.6907 50.6843 55.6907 49.2193 56.4794 48.3307C60.5516 44.6896 66.7267 45.0004 71.8941 45.9771ZM18.2914 49.4856C15.2698 49.53 12.0726 49.8408 9.27056 50.9063C8.70077 51.1283 8.00027 51.7505 8.43808 52.5052C9.57703 54.0591 11.2045 55.3362 12.7299 56.2351C14.2553 57.1346 16.2768 58.2779 18.1163 58.5443C18.5541 55.6579 18.5541 52.816 18.5109 49.8408C18.3352 49.752 18.5109 49.5744 18.2914 49.4856ZM114.68 50.9957C112.666 53.3043 110.651 55.6136 109.644 58.3667C111.002 58.5443 112.14 57.6564 113.323 57.1681C115.337 55.8799 116.607 53.7483 116.475 51.3065C116.388 50.9063 116.038 50.5955 115.862 50.2404C115.337 50.1516 115.118 50.8619 114.68 50.9957ZM59.7198 32.4331C60.5516 32.4775 61.2965 32.7883 61.9095 33.321C62.7413 34.1201 62.9602 35.4527 62.5662 36.5182C61.0332 39.716 57.3911 41.8508 54.9026 42.5579C53.414 42.9131 51.5308 42.9131 50.173 42.3803C49.5162 42.7799 48.9617 44.0713 48.1584 43.5346C46.9966 42.6146 48.0023 41.1746 47.3316 40.1528C47.1933 39.9418 46.845 39.9263 46.6692 39.5828C45.7498 37.5399 46.8887 35.5858 48.1584 34.0313C50.2751 31.6372 56.348 28.9689 59.7198 32.4331ZM52.3627 38.7386C52.2313 39.0938 51.4432 39.4933 52.0562 39.8935C54.9464 40.1599 57.7052 39.3157 59.8074 37.3623C60.4203 36.7845 60.8581 36.0298 60.5516 35.2307C60.4203 34.9199 60.1138 34.6091 59.8074 34.4753C56.7858 34.2089 54.5086 36.5182 52.3627 38.7386ZM52.6691 34.0313C51.4864 34.2533 50.1507 34.7751 49.4287 35.6302C48.706 36.4847 48.2459 37.3179 48.6844 38.2058C50.2167 37.0515 50.961 35.4527 52.6691 34.4753C52.6691 34.2977 52.9318 34.1645 52.6691 34.0313Z" fill="#B5B5B5"/>
</svg>
