<svg width="240" height="94" viewBox="0 0 240 94" fill="none" xmlns="http://www.w3.org/2000/svg">
<path d="M38.8932 41.062C32.9295 41.062 28.392 45.219 28.392 51.1396C28.392 57.0602 32.9295 61.2172 38.8932 61.2172C41.7453 61.2172 43.9493 59.9575 44.8568 58.9498V60.9653H49.524V41.3139H44.8568V43.3294C43.9493 42.3217 41.6157 41.062 38.8932 41.062ZM39.0228 57.0602C35.5224 57.0602 32.9295 54.4148 32.9295 51.1396C32.9295 47.8644 35.652 45.219 39.0228 45.219C42.3935 45.219 44.9864 47.8644 44.9864 51.1396C44.9864 54.4148 42.3935 57.0602 39.0228 57.0602ZM79.0829 41.062C76.3603 41.062 74.286 42.0697 72.9896 43.3294V41.3139H68.452V71.2949L72.9896 70.791V58.8238C74.286 60.2095 76.49 61.0913 79.0829 61.0913C85.3058 61.0913 89.4544 57.1862 89.4544 51.0136C89.4544 44.9671 85.3058 41.062 79.0829 41.062ZM78.9532 57.0602C75.3232 57.0602 72.9896 54.5408 72.9896 51.1396C72.9896 47.7384 75.3232 45.219 78.9532 45.219C82.5833 45.219 85.0465 47.7384 85.0465 51.1396C84.9169 54.5408 82.5833 57.0602 78.9532 57.0602ZM124.458 41.062C121.606 41.062 120.05 42.0697 119.143 43.3294V41.3139H114.605V60.9653H119.143V50.1319C119.143 47.2345 121.217 45.219 124.069 45.219H124.458V41.062ZM101.641 41.062C95.6773 41.062 91.0101 45.5969 91.0101 51.1396C91.0101 56.6823 95.6773 61.2172 101.641 61.2172C106.567 61.2172 110.586 58.5719 111.883 55.0447H106.438C105.79 56.3044 104.104 57.1862 101.641 57.1862C98.6592 57.1862 96.3256 55.1707 95.807 52.6513H112.013C112.142 52.1474 112.142 51.6435 112.142 51.1396C112.142 45.5969 107.475 41.062 101.641 41.062ZM96.0663 48.7462C96.7145 46.7307 98.9184 45.093 101.641 45.093C104.234 45.093 106.567 46.7307 107.216 48.7462H96.0663ZM59.2473 44.9671C58.3398 44.9671 57.3026 45.345 57.3026 46.4787C57.3026 47.7384 58.5991 48.1163 61.0623 48.9981C64.4331 50.2578 66.1184 51.7695 66.1184 54.7928C66.1184 57.942 63.3959 61.2172 58.7287 61.2172C54.0615 61.2172 51.5983 57.816 51.4687 55.0447H55.8765C56.1358 56.3044 57.173 57.3122 58.7287 57.3122C60.4141 57.3122 61.4513 56.1784 61.4513 54.9187C61.4513 54.0369 61.0623 53.0292 58.2101 52.2733C55.0987 51.5175 52.8947 49.8799 52.8947 46.6047C52.8947 43.5814 55.6173 41.188 59.1177 41.188C62.2291 41.188 64.1738 43.3294 65.0813 44.7151L61.3216 46.3527C60.803 45.345 60.0252 44.9671 59.2473 44.9671Z" fill="#B5B5B5"/>
<path d="M14.6498 33C6.35257 33 0 39.2985 0 47.1087C0 54.9188 6.35257 61.2174 14.6498 61.2174C19.9652 61.2174 24.8917 58.446 27.0956 54.5409L22.8174 52.2735C21.132 55.1708 18.2798 56.8084 14.6498 56.8084C12.0569 56.8084 9.46403 55.8006 7.77866 54.0371C5.96364 52.1475 4.92648 49.7541 4.92648 47.2347C4.92648 44.7152 5.96364 42.3218 7.77866 40.4323C9.46403 38.6687 11.9273 37.6609 14.6498 37.6609C17.502 37.6609 19.1874 38.5427 20.3541 39.4245C21.6506 40.3063 22.947 41.1881 25.151 41.1881C29.17 41.1881 30.985 38.0388 31.3739 36.4012L26.8364 35.5194C26.8364 35.6454 26.4474 36.9051 25.151 36.9051C24.5028 36.9051 24.1138 36.6531 23.2063 36.0233C21.5209 34.5116 19.317 33 14.6498 33Z" fill="#B5B5B5"/>
</svg>
