<svg width="240" height="94" viewBox="0 0 240 94" fill="none" xmlns="http://www.w3.org/2000/svg">
<path d="M19.7107 29.8231C18.8486 27.7404 17.5372 25.9135 15.2685 25L14.3973 25.0091C15.5272 26.4433 15.4591 28.0281 15.0053 29.7683C14.6873 29.8179 14.3714 29.8651 14.0571 29.912C13.3308 30.0205 12.6129 30.1277 11.8972 30.2615C8.67107 30.8599 5.7308 32.0885 3.3441 34.4406C2.00488 35.751 1.01817 37.3823 0.476433 39.1815C0.168685 40.2801 0.00844655 41.4153 0 42.5567L0.0219451 42.6633C0.190339 43.483 0.359856 44.3082 1.22965 44.781C1.38846 44.813 1.56542 44.813 1.74692 44.813H32.2204C33.2777 44.813 33.7949 44.3563 34.0082 43.3012C34.4982 40.9673 33.8312 38.8572 32.6833 36.907C30.959 33.9793 28.3318 32.1387 25.1556 31.1476C23.9911 30.7824 22.7877 30.5162 21.5495 30.2423C20.9447 30.1086 20.3316 29.973 19.7107 29.8231Z" fill="#B5B5B5"/>
<path d="M32.0662 46.3293H2.07362C2.06409 46.7335 2.04514 47.1292 2.02645 47.5194C1.99171 48.2447 1.9579 48.9505 1.9874 49.6543C2.03409 52.2889 2.66177 54.8801 3.82507 57.2406C5.88961 61.2325 9.24279 63.5115 13.5261 64.489C14.4745 64.7036 15.2912 65.0051 15.9038 65.8272C16.2697 66.2022 16.6814 66.529 17.1289 66.8C17.4432 66.5831 17.7377 66.3385 18.0091 66.0692C18.7749 65.1921 19.8097 64.5974 20.9494 64.3793C24.2744 63.6416 27.2165 61.7052 29.2212 58.9351C31.3583 55.9526 32.1206 52.5363 32.2295 48.9373C32.2447 48.369 32.1929 47.8029 32.1392 47.2169C32.1127 46.9268 32.0857 46.6318 32.0662 46.3293Z" fill="#B5B5B5"/>
<path fill-rule="evenodd" clip-rule="evenodd" d="M53.3038 54.6065L53.2703 54.0101C53.2481 53.6158 53.2229 53.2378 53.1985 52.8704L53.1984 52.8692C53.1426 52.0305 53.0906 51.2475 53.0856 50.4538L53.0855 50.4484C53.0689 49.4007 53.0726 48.3273 53.0764 47.2473C53.0813 45.8403 53.0862 44.422 53.0461 43.0353C52.9817 40.8461 52.2065 38.8448 49.9372 37.7818L49.9243 37.7757L49.9111 37.7703C46.9245 36.5496 43.506 37.193 41.1606 39.4138L40.7981 39.757L41.9155 41.2652L42.2386 41.2323C42.3765 41.2182 42.512 41.186 42.6415 41.1365L42.706 41.1118L42.7627 41.0725C42.863 41.003 42.991 40.9037 43.0984 40.8204C43.1586 40.7738 43.2122 40.7322 43.2509 40.7036L43.2636 40.694C44.3803 39.8202 45.779 39.3972 47.1871 39.5058C48.464 39.6131 49.3859 40.0345 49.938 40.7421C50.436 41.3806 50.7062 42.3459 50.552 43.7609C50.389 43.7583 50.2233 43.7549 50.0558 43.7515L50.0546 43.7515C49.3427 43.737 48.597 43.7218 47.8763 43.7663C46.0721 43.8744 44.1425 44.0888 42.4524 45.2188C40.9615 46.2141 39.9915 47.6359 40.0605 49.579C40.1316 51.6373 41.1285 53.2221 43.0398 54.0527C45.0864 55.0229 47.4842 54.8734 49.396 53.6569C49.855 53.3713 50.2549 53.0187 50.6171 52.674C50.6993 52.5957 50.7781 52.5193 50.8547 52.4445L51.1319 54.6065H53.3038ZM42.1806 40.6703C42.1805 40.6704 42.1807 40.6703 42.1806 40.6703V40.6703ZM51.0472 44.3301C51.0471 44.3301 51.0474 44.3301 51.0472 44.3301V44.3301ZM47.9114 44.3301C47.9115 44.3301 47.9112 44.3301 47.9114 44.3301V44.3301ZM51.2756 51.2586C51.2758 51.2584 51.2755 51.2587 51.2756 51.2586V51.2586ZM51.144 45.5117C51.1442 45.5117 51.1439 45.5117 51.144 45.5117V45.5117ZM44.1637 46.8958C45.3932 46.3001 46.7381 46.1655 48.1862 46.0757C48.7988 46.0437 49.3962 46.0537 50.0449 46.0646C50.2246 46.0677 50.4082 46.0707 50.5971 46.073C50.6438 47.744 50.4776 49.1882 49.6147 50.5153C48.9859 51.4667 47.8529 52.0997 46.6144 52.2882C45.3752 52.4768 44.1203 52.2071 43.2568 51.472C42.584 50.8977 42.333 50.001 42.5013 49.0965C42.6697 48.1919 43.2507 47.338 44.1637 46.8958Z" fill="#B5B5B5"/>
<path fill-rule="evenodd" clip-rule="evenodd" d="M80.1181 37.1603L80.1081 37.1604C77.7415 37.1794 75.6033 37.9767 74.0514 39.4791C72.496 40.9848 71.5719 43.1576 71.5626 45.8438C71.555 48.471 72.4457 50.6721 73.9842 52.2203C75.522 53.7678 77.67 54.6257 80.1068 54.6352C85.0325 54.6544 88.6663 51.0027 88.6663 46.0289V46.0278C88.6607 43.2904 87.7471 41.0745 86.1952 39.5364C84.6457 38.0004 82.5032 37.1831 80.1181 37.1603ZM86.2416 45.855L86.2416 45.8703C86.2399 47.6009 85.7511 49.0394 84.8943 50.1124C84.039 51.1833 82.7883 51.9267 81.1931 52.2221C78.0351 52.807 74.9971 51.0529 74.2366 47.8009L74.236 47.7985C73.5808 45.0516 74.0686 42.6551 76.2192 40.7833C77.6329 39.5567 79.3311 39.2867 81.2186 39.5489C84.5914 40.0167 86.394 43.1129 86.2424 45.8397L86.2416 45.855Z" fill="#B5B5B5"/>
<path fill-rule="evenodd" clip-rule="evenodd" d="M104.644 54.5921V54.0273C104.644 53.6379 104.644 53.3265 104.64 53.015C104.64 52.2662 104.636 51.5203 104.631 50.7762L104.631 50.7738C104.619 48.9653 104.607 47.1678 104.665 45.3681C104.733 43.2425 105.393 41.4317 107.127 40.2284L107.129 40.2268C108.163 39.5017 109.578 39.2127 110.782 39.5562C111.941 39.887 112.977 40.8239 113.284 42.7278C113.384 43.3484 113.436 43.9759 113.441 44.6045L113.441 52.9642L113.441 52.9702C113.444 53.2222 113.46 53.4848 113.477 53.7472C113.48 53.7978 113.484 53.8488 113.487 53.8993C113.49 53.9478 113.493 53.9963 113.495 54.0445L113.525 54.5778H115.798V52.526C115.798 51.5618 115.8 50.5964 115.802 49.6302V49.6239C115.806 47.6893 115.81 45.752 115.798 43.8167C115.787 42.1722 115.424 40.5028 114.256 39.1436C112.059 36.5846 107.755 36.4602 105.26 38.7858C105.003 39.0251 104.757 39.2879 104.512 39.5628L104.405 37.2215H102.273V54.5921H104.644ZM104.008 40.9931C104.207 40.7736 104.39 40.5631 104.566 40.3608L104.549 40.3803C104.378 40.5765 104.2 40.7808 104.008 40.9931ZM114.009 44.6031V52.9642C114.012 53.2003 114.027 53.4401 114.043 53.6967L114.044 53.695C114.027 53.4391 114.012 53.1998 114.009 52.9642V44.6031Z" fill="#B5B5B5"/>
<path fill-rule="evenodd" clip-rule="evenodd" d="M130.134 40.4893L129.865 40.0003C129.648 39.6064 129.388 39.2376 129.09 38.9007L129.065 38.8723L129.037 38.8475C126.949 37.0382 124.526 36.6714 122.006 37.6194C120.322 38.1619 119.161 39.7052 119.093 41.4745C119.027 42.4746 119.186 43.3861 119.633 44.1597C120.084 44.9399 120.798 45.5294 121.749 45.928L121.753 45.9299C122.251 46.1336 122.746 46.3013 123.226 46.4642L123.406 46.5252L123.42 46.5293C124.463 46.8225 125.489 47.1735 126.493 47.5805C127.941 48.2648 128.241 50.0767 127.082 51.285C126.133 52.2737 124.953 52.4986 123.568 52.2806L123.558 52.2791C122.28 52.1013 121.141 51.3673 120.445 50.2679L120.136 49.7784L118.12 51.1048L118.494 51.5856C118.561 51.671 118.629 51.7627 118.698 51.8565C118.859 52.0729 119.028 52.3011 119.206 52.4905L119.212 52.4968L119.218 52.5029C121.281 54.5778 124.375 55.2234 127.091 54.1422L127.095 54.1404C129.046 53.3444 130.268 51.3866 130.141 49.2818C130.079 47.3904 128.831 45.7406 127.025 45.1797C126.517 45.0054 126.003 44.8538 125.5 44.7075L125.36 44.6666C124.9 44.5328 124.45 44.402 124.006 44.2569L123.993 44.2527C123.429 44.0834 122.881 43.8649 122.355 43.5998C121.969 43.392 121.763 43.1249 121.648 42.8111C121.524 42.4749 121.493 42.0563 121.524 41.5478L121.524 41.5397L121.524 41.5316C121.547 40.8056 121.983 40.1625 122.637 39.8765L122.647 39.8723L122.656 39.8678C123.406 39.5067 124.341 39.3782 125.223 39.5157C126.105 39.6531 126.885 40.047 127.381 40.6745L127.382 40.6757C127.484 40.8034 127.578 40.9327 127.686 41.0818C127.705 41.1084 127.725 41.1356 127.746 41.1635C127.761 41.1849 127.777 41.2066 127.793 41.2289L128.091 41.6361L130.134 40.4893ZM128.253 40.8964C128.233 40.8693 128.214 40.8426 128.195 40.8161L128.152 40.7579C128.185 40.8033 128.219 40.8493 128.253 40.8964ZM119.622 52.1058C119.467 51.9403 119.332 51.7572 119.182 51.5554C119.108 51.4551 119.03 51.3499 118.944 51.2402L119.964 50.5688C119.965 50.5689 119.964 50.5688 119.964 50.5688L118.944 51.2402C119.03 51.3499 119.108 51.4551 119.182 51.5554C119.217 51.6026 119.251 51.6485 119.284 51.6936C119.396 51.8417 119.504 51.9789 119.622 52.1058Z" fill="#B5B5B5"/>
<path fill-rule="evenodd" clip-rule="evenodd" d="M69.8493 39.9363L69.3975 39.5297C69.3286 39.4677 69.2602 39.4046 69.1918 39.3415C68.9916 39.1567 68.7908 38.9713 68.574 38.8111C66.012 36.7829 62.2051 36.639 59.4239 38.3357C55.3944 40.7897 54.3637 46.2279 56.359 50.1652C58.2108 53.8238 62.2482 55.4586 66.1692 54.3068C67.3547 53.9578 68.5272 53.4382 69.4453 52.2748L69.7613 51.8745L68.2236 50.3943L67.8344 50.6921C67.7082 50.7886 67.5923 50.883 67.4884 50.9677L67.4495 50.9994C67.3335 51.0937 67.2338 51.1738 67.1347 51.2456C64.8264 52.8872 61.6831 52.6336 59.6635 50.6404C58.5152 49.4834 57.8985 47.8175 57.8564 46.1004C57.8142 44.3827 58.3486 42.6683 59.4304 41.4241C61.5218 39.02 65.1569 38.9029 67.1049 40.7715L67.1208 40.7868L67.1379 40.8008C67.3574 40.9808 67.5908 41.1432 67.8357 41.2865L68.2069 41.5035L69.8493 39.9363Z" fill="#B5B5B5"/>
<path fill-rule="evenodd" clip-rule="evenodd" d="M93.8194 54.5849L93.8498 54.0521C93.8542 53.9756 93.8591 53.9009 93.8639 53.8273L93.8641 53.8241C93.8773 53.6228 93.8899 53.4298 93.8899 53.2335C93.8899 52.423 93.8848 51.6164 93.8796 50.8119V50.8101C93.8693 49.208 93.859 47.6143 93.8899 46.0146L93.8899 46.0091C93.8988 45.0848 94.0129 44.1645 94.2301 43.2664C94.4891 42.2594 94.9461 41.2422 95.6742 40.5141C96.3837 39.8046 97.3792 39.3382 98.8163 39.4555L98.8187 39.4557C98.9431 39.4653 99.0439 39.4363 99.1072 39.4115C99.1673 39.388 99.2147 39.3596 99.2368 39.3461C99.2701 39.3258 99.2832 39.3171 99.2911 39.3119C99.2988 39.3068 99.3014 39.3051 99.3132 39.2989L99.5792 39.1597L99.613 38.8629C99.6335 38.6838 99.644 38.5043 99.6452 38.3252L99.6453 38.3122L99.6448 38.2992C99.6383 38.1369 99.6099 37.9715 99.5862 37.8335L99.5859 37.8317C99.5777 37.7841 99.5701 37.7398 99.5642 37.7L99.5009 37.2754L99.0723 37.2222C97.7358 37.0565 96.5634 37.2658 95.5272 37.8211C94.89 38.1626 94.3189 38.627 93.7989 39.1922L93.6102 37.2179H91.5009V54.5849H93.8194ZM98.8628 38.8925C98.863 38.8925 98.8626 38.8925 98.8628 38.8925V38.8925ZM97.3971 37.7899C95.9937 37.998 94.8562 38.7601 93.8736 39.9732C93.7006 40.1868 93.5324 40.4144 93.3684 40.6554C94.4639 39.0454 95.7466 38.0348 97.3971 37.7899Z" fill="#B5B5B5"/>
</svg>
