<?xml version="1.0" encoding="UTF-8"?>
<svg width="182px" height="76px" viewBox="0 0 182 76" version="1.1" xmlns="http://www.w3.org/2000/svg" xmlns:xlink="http://www.w3.org/1999/xlink">
    <!-- Generator: Sketch 55.1 (78136) - https://sketchapp.com -->
    <title>svg-home-partners-testimonials-spring</title>
    <desc>Created with Sketch.</desc>
    <g id="assets" stroke="none" stroke-width="1" fill="none" fill-rule="evenodd">
        <g id="local-assets-pt.1" transform="translate(-1605.000000, -12507.000000)" fill="#B5B5B5">
            <g id="Group-16" transform="translate(1605.000000, 12507.000000)">
                <path d="M22.8090345,49.2365102 L42.3178592,37.9517649 L42.3178592,31.5297176 L22.8090345,42.8144629 L22.8090345,49.2365102 Z M19.6262736,25.1136997 L26.575892,21.0936081 L21.6589296,18.25 L2.15085861,29.5339916 L14.324938,36.5763118 L21.4396108,32.4650258 C21.5858233,32.3798607 21.8232303,32.3806144 21.9709502,32.4650258 L23.739067,33.4885136 C23.8867869,33.5736787 23.8867869,33.7108472 23.739067,33.7960122 L16.6266552,37.9072982 L16.7819118,37.9969853 L21.6589296,40.8179832 L26.5359473,37.9969853 L41.1677542,29.5339916 L28.8768556,22.4245945 L21.9272372,26.4446861 C21.7802709,26.5290975 21.5421103,26.5290975 21.3958977,26.4446861 L19.6262736,25.4204446 C19.4808147,25.3360332 19.4808147,25.198111 19.6262736,25.1136997 L19.6262736,25.1136997 Z M1,37.9517649 L13.1755867,44.9948388 L13.1755867,38.5727915 L1,31.5297176 L1,37.9517649 Z M1,46.4652547 L13.1755867,53.5075749 L13.1755867,47.6553043 L1,40.6137378 L1,46.4652547 Z M15.4757966,39.9030242 L15.4757966,46.3250716 L20.5088247,49.2365102 L20.5088247,42.8144629 L15.6318069,39.9927113 L15.4757966,39.9030242 Z M22.8090345,57.75 L42.3178592,46.4652547 L42.3178592,40.6137378 L22.8090345,51.8977294 L22.8090345,57.75 Z M15.4757966,48.9862908 L20.5088247,51.8977294 L20.5088247,57.75 L15.4757966,54.8385613 L15.4757966,48.9862908 Z M70.8308147,49.4317115 C68.5275902,49.4317115 66.6140145,49.008901 65.0893341,48.1647873 C63.5646537,47.3199199 62.2766266,46.1750906 61.2267602,44.7295459 L64.1050372,42.4391338 C64.912221,43.7618298 65.8724003,44.7340679 66.9825606,45.3558481 C68.0934745,45.976121 69.346079,46.2866342 70.7396203,46.2866342 C72.2341538,46.2866342 73.3601412,45.9610475 74.1175825,45.3091204 C74.8750239,44.657947 75.2533677,43.8228773 75.2533677,42.8054188 C75.2533677,42.1338962 75.0920817,41.5897443 74.768756,41.1722095 C74.4461839,40.7546747 74.0165903,40.4087388 73.4807289,40.1336482 C72.9456211,39.8593112 72.3298703,39.640746 71.6327228,39.477199 C70.9363289,39.3144056 70.2143102,39.1516123 69.4666667,38.9880653 C68.6187846,38.8056764 67.7701488,38.596909 66.9222667,38.3625167 C66.073631,38.1288781 65.3161897,37.7927399 64.6506964,37.3548559 C63.9836959,36.916972 63.4433123,36.3471952 63.0295459,35.6455257 C62.6150258,34.9423488 62.4085194,34.0319118 62.4085194,32.9119538 C62.4085194,32.0369395 62.5954303,31.2124213 62.9684984,30.4391528 C63.3423202,29.6651307 63.8676302,28.9883324 64.5444285,28.4080042 C65.2204732,27.8284297 66.0238886,27.3694429 66.9524137,27.0340584 C67.8816924,26.6986739 68.9014119,26.5298512 70.0123259,26.5298512 C71.9108281,26.5298512 73.5214272,26.8614673 74.8448769,27.5224385 C76.167573,28.1841633 77.3644056,29.1255009 78.4346213,30.3472047 L75.7078325,32.5147682 C75.3852604,32.0678401 75.0415856,31.6653787 74.6775615,31.3088914 C74.3142912,30.9524041 73.9058004,30.6418909 73.450582,30.3781053 C72.9968708,30.1128124 72.4919099,29.9093207 71.936453,29.7668766 C71.3802423,29.6244324 70.7396203,29.5535871 70.0123259,29.5535871 C68.5177924,29.5535871 67.4423011,29.8633467 66.7866056,30.4843732 C66.1294028,31.1053997 65.801555,31.9042931 65.801555,32.8818069 C65.801555,33.4515837 65.9530433,33.9150925 66.2552662,34.2715799 C66.5589964,34.6273135 66.9629651,34.9227533 67.467926,35.1563919 C67.9728869,35.3907842 68.553215,35.5844782 69.2096642,35.7367201 C69.8661133,35.888962 70.5572314,36.0366819 71.2845259,36.1798798 C72.1535108,36.3630223 73.0270177,36.5815875 73.9058004,36.8363289 C74.7838294,37.0903167 75.5714177,37.4566018 76.2685652,37.9351841 C76.964959,38.4137665 77.5354894,39.034793 77.9801565,39.7982637 C78.4248235,40.5609807 78.6464034,41.553568 78.6464034,42.7752719 C78.6464034,43.6306907 78.4745659,44.459731 78.1316447,45.2639 C77.7879699,46.0680691 77.283009,46.7750143 76.6167621,47.3862431 C75.9505152,47.9959645 75.13278,48.490374 74.1628029,48.8672105 C73.1935795,49.2440469 72.0826655,49.4317115 70.8308147,49.4317115 L70.8308147,49.4317115 Z M89.255104,49.4626121 C88.1042454,49.4626121 87.0287541,49.248569 86.02863,48.8212364 C85.0292597,48.3939038 84.2258443,47.7623259 83.6206449,46.9280099 L83.6206449,55.7218661 L80.4393913,55.7218661 L80.4393913,32.6376169 L83.6206449,32.6376169 L83.6206449,35.0802709 C84.2469471,34.2248521 85.0594066,33.5488075 86.0595306,33.0491223 C87.058901,32.5501908 88.1238409,32.3014787 89.255104,32.3014787 C90.3456688,32.3014787 91.3804617,32.5049704 92.3602366,32.9119538 C93.3400114,33.3196909 94.2082427,33.8992654 94.965684,34.6521847 C95.7231254,35.4058577 96.3245564,36.3064969 96.7684698,37.3548559 C97.2131368,38.403215 97.4354703,39.5796985 97.4354703,40.8820454 C97.4354703,42.1640431 97.2078611,43.3352509 96.7533963,44.3934077 C96.2989315,45.4523183 95.6929784,46.3582332 94.9355371,47.1111525 C94.1780958,47.8648254 93.3045888,48.4443999 92.3157699,48.8513833 C91.3254436,49.2583667 90.3057241,49.4626121 89.255104,49.4626121 L89.255104,49.4626121 Z M88.8013929,46.4396298 C89.5482828,46.4396298 90.2499523,46.2971857 90.9064015,46.0122973 C91.5628506,45.7274089 92.133381,45.3294696 92.6179927,44.821494 C93.1033581,44.3120111 93.481702,43.7166094 93.7545316,43.0345354 C94.0266075,42.3524614 94.1630223,41.6244133 94.1630223,40.8511448 C94.1630223,40.0778764 94.0266075,39.3498283 93.7545316,38.6685079 C93.481702,37.9856802 93.1033581,37.3955543 92.6179927,36.8973765 C92.133381,36.398445 91.5628506,36.0057813 90.9064015,35.720893 C90.2499523,35.4360046 89.5482828,35.2935604 88.8013929,35.2935604 C88.0334001,35.2935604 87.3219328,35.4412803 86.6654837,35.7367201 C86.0082809,36.0314062 85.4385041,36.4285919 84.9531387,36.9275234 C84.4692807,37.4264549 84.0901832,38.0165808 83.8173536,38.6986548 C83.5445239,39.3807289 83.4081091,40.0982255 83.4081091,40.8511448 C83.4081091,41.6244133 83.5445239,42.3524614 83.8173536,43.0345354 C84.0901832,43.7166094 84.4692807,44.3067354 84.9531387,44.8056669 C85.4385041,45.3045984 86.0082809,45.701784 86.6654837,45.9964701 C87.3219328,46.2919099 88.0334001,46.4396298 88.8013929,46.4396298 L88.8013929,46.4396298 Z M99.0460695,32.6376169 L102.25747,32.6376169 L102.25747,35.5076035 C102.600391,34.4690422 103.1664,33.690498 103.953988,33.171971 C104.741576,32.6526903 105.661057,32.3926732 106.710923,32.3926732 C107.276178,32.3926732 107.796213,32.4491986 108.271027,32.5607422 C108.745087,32.6722858 109.144533,32.8305571 109.467106,33.0340488 L108.194906,36.2100267 C107.710294,35.88444 107.023698,35.720893 106.135117,35.720893 C104.96391,35.720893 104.033877,36.0366819 103.348035,36.6675062 C102.661439,37.2990841 102.317764,38.357241 102.317764,39.8434841 L102.317764,49.126474 L99.0460695,49.126474 L99.0460695,32.6376169 Z M110.862908,49.1272276 L114.165503,49.1272276 L114.165503,32.6376169 L110.862908,32.6376169 L110.862908,49.1272276 Z M110.196661,27.6905075 C110.196661,27.0189849 110.413719,26.4590059 110.847834,26.0113242 C111.282704,25.5636424 111.832885,25.3390479 112.499132,25.3390479 C113.185728,25.3390479 113.746461,25.5636424 114.180576,26.0113242 C114.615446,26.4590059 114.832503,27.0189849 114.832503,27.6905075 C114.832503,28.3627838 114.615446,28.9220092 114.180576,29.3704446 C113.746461,29.8173726 113.185728,30.0412135 112.499132,30.0412135 C111.812536,30.0412135 111.256325,29.8173726 110.832761,29.3704446 C110.408443,28.9220092 110.196661,28.3627838 110.196661,27.6905075 L110.196661,27.6905075 Z M116.234335,32.6376169 L119.445736,32.6376169 L119.445736,34.928029 C120.01099,34.1336577 120.733009,33.4975577 121.611792,33.0189754 C122.489821,32.5411467 123.504264,32.3014787 124.65663,32.3014787 C125.686148,32.3014787 126.619948,32.4695478 127.458786,32.8049323 C128.296871,33.1418241 129.003062,33.6196527 129.578869,34.2406793 C130.154675,34.8617058 130.599342,35.6244228 130.912116,36.5310914 C131.225644,37.4370063 131.381654,38.4491891 131.381654,39.5691471 L131.381654,49.126474 L128.079813,49.126474 L128.079813,39.8133371 C128.079813,38.4084907 127.72634,37.2885327 127.019395,36.4542168 C126.31245,35.6199008 125.271628,35.202366 123.899189,35.202366 C123.272887,35.202366 122.691805,35.3139096 122.156697,35.5377504 C121.621589,35.762345 121.156573,36.082656 120.763156,36.5001908 C120.368985,36.916972 120.061486,37.4264549 119.839153,38.0271322 C119.616819,38.6278096 119.506029,39.2940565 119.506029,40.0266266 L119.506029,49.126474 L116.234335,49.126474 L116.234335,32.6376169 Z M141.232914,49.4626121 C140.162698,49.4626121 139.132427,49.2583667 138.142854,48.8513833 C137.153282,48.4443999 136.279775,47.8648254 135.522334,47.1111525 C134.764892,46.3582332 134.158939,45.4523183 133.704474,44.3934077 C133.25001,43.3352509 133.0224,42.1640431 133.0224,40.8820454 C133.0224,39.5796985 133.244734,38.403215 133.689401,37.3548559 C134.134068,36.3064969 134.734745,35.4058577 135.492187,34.6521847 C136.249628,33.8992654 137.128411,33.3196909 138.127781,32.9119538 C139.127151,32.5049704 140.172496,32.3014787 141.26306,32.3014787 C142.353625,32.3014787 143.39897,32.5411467 144.399094,33.0189754 C145.398464,33.4975577 146.210923,34.1638046 146.837226,35.0192234 L146.837226,32.6376169 L150.109674,32.6376169 L150.109674,47.8135757 C150.109674,49.0345259 149.892616,50.1492082 149.4585,51.1568689 C149.024385,52.1652833 148.428229,53.0297462 147.670788,53.7525186 C146.913347,54.475291 146.024766,55.0345163 145.005047,55.4324556 C143.984574,55.8288876 142.888733,56.0278573 141.717525,56.0278573 C139.73838,56.0278573 138.107432,55.7324175 136.82468,55.1422915 C135.542683,54.5521656 134.457394,53.6967468 133.56806,52.5775425 L136.203654,50.4092253 C136.849552,51.3045888 137.587397,51.961038 138.415684,52.3785728 C139.243217,52.7961076 140.323984,53.0041214 141.656478,53.0041214 C142.44482,53.0041214 143.157041,52.88278 143.792387,52.63859 C144.429241,52.3936463 144.9749,52.0477104 145.428611,51.6000286 C145.883829,51.1523469 146.237302,50.6179927 146.489782,49.9969662 C146.741509,49.3759397 146.867373,48.68859 146.867373,47.934917 L146.867373,46.6529193 C146.241824,47.5279336 145.423335,48.216037 144.414167,48.7142148 C143.404245,49.2131463 142.343828,49.4626121 141.232914,49.4626121 L141.232914,49.4626121 Z M141.656478,46.4396298 C142.424471,46.4396298 143.136691,46.2919099 143.792387,45.9964701 C144.448836,45.701784 145.014844,45.3045984 145.488905,44.8056669 C145.963719,44.3067354 146.337541,43.7166094 146.61037,43.0345354 C146.8832,42.3524614 147.019615,41.6244133 147.019615,40.8511448 C147.019615,40.0982255 146.8832,39.3807289 146.61037,38.6986548 C146.337541,38.0165808 145.963719,37.4264549 145.488905,36.9275234 C145.014844,36.4285919 144.448836,36.0314062 143.792387,35.7367201 C143.136691,35.4412803 142.424471,35.2935604 141.656478,35.2935604 C140.889992,35.2935604 140.177771,35.4360046 139.521322,35.720893 C138.864873,36.0057813 138.293589,36.398445 137.809731,36.8973765 C137.324366,37.3955543 136.946022,37.9856802 136.673192,38.6685079 C136.401116,39.3498283 136.264701,40.0778764 136.264701,40.8511448 C136.264701,41.6244133 136.401116,42.3524614 136.673192,43.0345354 C136.946022,43.7166094 137.324366,44.3120111 137.809731,44.821494 C138.293589,45.3294696 138.864873,45.7274089 139.521322,46.0122973 C140.177771,46.2971857 140.889992,46.4396298 141.656478,46.4396298 L141.656478,46.4396298 Z" id="Fill-1"></path>
            </g>
        </g>
    </g>
</svg>