<?xml version="1.0" encoding="UTF-8"?>
<svg width="1443px" height="799px" viewBox="0 0 1443 799" version="1.1" xmlns="http://www.w3.org/2000/svg" xmlns:xlink="http://www.w3.org/1999/xlink">
    <title>adesso</title>
    <g id="Page-1" stroke="none" stroke-width="1" fill="none" fill-rule="evenodd">
        <g id="adesso" transform="translate(0.000000, 6.650000)">
            <g id="Group-30" transform="translate(151.000000, 111.049998)" fill-rule="nonzero">
                <path d="M1019.32985,48.7101931 C1048.41287,48.7101931 1072.04438,67.7617297 1072.5141,91.4204387 L1072.52123,92.1387638 C1072.52123,116.123702 1048.71055,135.567335 1019.32985,135.567335 L970.595141,135.567335 C941.215418,135.567335 917.404523,155.01097 917.404523,178.995907 C917.404523,202.986119 941.218774,222.424478 970.595141,222.424478 L970.595141,222.424478 L1012.247,222.424084 L1012.24759,222.51972 C1039.67799,223.995781 1061.42711,242.446841 1061.87753,265.134724 L1061.88466,265.85305 C1061.88466,288.863617 1039.96811,307.694359 1012.24774,309.186355 L1012.247,309.281438 L1081.38171,309.281622 C1110.4619,309.281622 1134.09111,328.333158 1134.56079,351.991867 L1134.56791,352.710193 C1134.56791,376.69513 1110.75999,396.138765 1081.38171,396.138765 L996.283119,396.138765 C966.921033,396.138765 943.109577,415.582398 943.109577,439.567335 C943.109577,463.557547 966.916182,482.995907 996.283119,482.995907 L996.283119,482.995907 L1086.7,482.995907 C1115.78019,482.995907 1139.4094,502.047444 1139.8862,525.706152 L1139.8862,526.424478 C1139.8862,550.409417 1116.07828,569.85305 1086.7,569.85305 L944.88239,569.85305 C973.96073,569.85305 997.588439,588.904587 998.058085,612.563296 L998.06521,613.281622 C998.06521,637.266559 974.253425,656.710193 944.88239,656.710193 L132.957126,656.710193 C103.585066,656.710193 79.7743063,637.271833 79.7743063,613.281622 C79.7743063,589.296683 103.586091,569.85305 132.957126,569.85305 L209.188676,569.85305 C238.558743,569.85305 262.36883,550.409417 262.36883,526.424478 L262.36883,526.424478 L262.361705,525.706152 C261.892082,502.047444 238.265558,482.995907 209.188676,482.995907 L209.188676,482.995907 L53.1861977,482.995907 C23.8122718,482.995907 0,463.557547 0,439.567335 C0,415.582398 23.8079208,396.138765 53.1861977,396.138765 L98.3960589,396.138765 C69.0196914,396.138765 45.2054402,376.700404 45.2054402,352.710193 C45.2054402,328.725255 69.0163361,309.281622 98.3960589,309.281622 L284.522899,309.281622 C313.899301,309.281622 337.71123,289.837987 337.71123,265.85305 L337.71123,265.85305 L337.704104,265.134724 C337.234409,241.476015 313.604252,222.424478 284.522899,222.424478 L284.522899,222.424478 L156.006415,222.424478 C126.632489,222.424478 102.820217,202.986119 102.820217,178.995907 C102.820217,155.01097 126.628138,135.567335 156.006415,135.567335 L87.3170514,135.567335 C57.9402657,135.567335 34.1256755,116.128975 34.1256755,92.1387638 C34.1256755,68.1538266 57.9363531,48.7101931 87.3170514,48.7101931 L1019.32985,48.7101931 Z" id="Combined-Shape" fill="#E2D7F4" opacity="0.835389459"></path>
                <path d="M194.422268,209.846059 C194.422268,187.807974 212.278915,169.947017 234.318579,169.947017 L905.681407,169.947017 C927.712578,169.947017 945.577717,187.817033 945.577717,209.846059 L945.577717,635.282031 C945.577717,657.320116 927.721071,675.181072 905.681407,675.181072 L234.318579,675.181072 C212.287407,675.181072 194.422268,657.311057 194.422268,635.282031 L194.422268,209.846059 Z" id="Case" stroke="#4F46E5" stroke-width="11.3999999" fill="#FFFFFF"></path>
                <path d="M587.069337,386.120676 C591.138522,381.235623 593.869467,374.447604 593.122542,367.667321 C587.2833,367.895522 580.183622,371.550609 576.00551,376.416323 C572.255324,380.752146 568.968076,387.6562 569.839488,394.285638 C576.359521,394.788454 583.019603,390.997994 587.069337,386.120676 M617.292569,452.384119 C617.14863,452.778637 614.845611,460.672852 609.239783,468.799135 C604.412002,475.84243 599.378039,482.862518 591.457521,483.00176 C583.692613,483.152605 581.191193,478.422264 572.298117,478.422264 C563.408931,478.422264 560.631303,482.862518 553.27098,483.152605 C545.622779,483.450427 539.822439,475.544608 534.932414,468.536124 C524.946182,454.198126 517.336884,428.009136 527.55653,410.348683 C532.652737,401.568738 541.728654,396.022288 551.594289,395.871443 C559.110222,395.747673 566.182668,400.888002 570.769254,400.888002 C575.359731,400.888002 583.953259,394.67242 593.005835,395.585225 C596.779362,395.755409 607.415263,397.105277 614.254296,407.041699 C613.690212,407.397538 601.56046,414.406023 601.692728,429.022504 C601.844448,446.497302 617.113618,452.314499 617.292569,452.384119" id="apple_logo" fill="#E2D7F4"></path>
                <path d="M686.950042,208.170302 L697.845198,214.608349 L697.845198,247.958293 C697.845198,252.680328 701.673164,256.508293 706.395198,256.508293 L985.097815,256.508293 C989.819849,256.508293 993.647815,252.680328 993.647815,247.958293 L993.647815,168.382312 C993.647815,163.660277 989.819849,159.832312 985.097815,159.832312 L706.395198,159.832312 C701.673164,159.832312 697.845198,163.660277 697.845198,168.382312 L697.845198,201.732255 L686.950042,208.170302 Z" id="Rectangle-29" stroke="#4F46E5" stroke-width="22.7999997" fill="#4F46E5"></path>
                <g id="Group-85" transform="translate(848.733406, 208.170303) scale(-1, 1) rotate(-180.000000) translate(-848.733406, -208.170303) translate(719.301093, 182.283840)" fill="#FFFFFF">
                    <rect id="Rectangle-11" opacity="0.7" transform="translate(73.676855, 5.973799) scale(-1, 1) rotate(-180.000000) translate(-73.676855, -5.973799) " x="0" y="7.10542736e-15" width="147.35371" height="11.9475981" rx="5.97379905"></rect>
                    <path d="M163.283841,7.10542736e-15 L232.978163,7.10542736e-15 C236.277401,7.10542736e-15 238.951962,2.67456094 238.951962,5.97379905 C238.951962,9.27303717 236.277401,11.9475981 232.978163,11.9475981 L163.283841,11.9475981 C159.984603,11.9475981 157.310042,9.27303717 157.310042,5.97379905 C157.310042,2.67456094 159.984603,7.10542736e-15 163.283841,7.10542736e-15 Z" id="Rectangle-11" opacity="0.7" transform="translate(198.131002, 5.973799) scale(-1, 1) rotate(-180.000000) translate(-198.131002, -5.973799) "></path>
                    <rect id="Rectangle-11" transform="translate(34.847161, 45.799126) scale(-1, 1) rotate(-180.000000) translate(-34.847161, -45.799126) " x="0" y="39.825327" width="69.6943223" height="11.9475981" rx="5.97379905"></rect>
                    <rect id="Rectangle-11" opacity="0.7" transform="translate(139.388645, 45.799126) scale(-1, 1) rotate(-180.000000) translate(-139.388645, -45.799126) " x="79.650654" y="39.825327" width="119.475981" height="11.9475981" rx="5.97379905"></rect>
                    <rect id="Rectangle-11" opacity="0.7" transform="translate(233.973796, 45.799126) scale(-1, 1) rotate(-180.000000) translate(-233.973796, -45.799126) " x="209.082967" y="39.825327" width="49.7816588" height="11.9475981" rx="5.97379905"></rect>
                </g>
                <g id="Group-87" transform="translate(85.200000, -0.000000)">
                    <path d="M0,48.3379906 L10.8951563,54.7760376 L10.8951563,88.1259814 C10.8951563,92.8480161 14.7231217,96.6759811 19.4451562,96.6759811 L128.890133,96.6759811 C133.612167,96.6759811 137.440132,92.8480161 137.440132,88.1259814 L137.440132,8.5499998 C137.440132,3.8279653 133.612167,1.77635684e-15 128.890133,1.77635684e-15 L19.4451562,1.77635684e-15 C14.7231217,1.77635684e-15 10.8951563,3.8279653 10.8951563,8.5499998 L10.8951563,41.8999437 L0,48.3379906 Z" id="Rectangle-29" stroke="#4F46E5" stroke-width="22.7999997" fill="#4F46E5" transform="translate(68.720066, 48.337991) scale(-1, 1) translate(-68.720066, -48.337991) "></path>
                    <path d="M41.1818761,41.1196501 C42.0634269,41.1196501 42.8127433,41.428192 43.4298291,42.0452778 C44.0469149,42.6623636 44.3554568,43.41168 44.3554568,44.2932308 L44.3554568,76.0290383 C44.3554568,76.9105892 44.0469149,77.6599055 43.4298291,78.2769913 C42.8127433,78.8940772 42.0634269,79.2026191 41.1818761,79.2026191 L30.6032736,79.2026191 C29.7217227,79.2026191 28.9724064,78.8940772 28.3553206,78.2769913 C27.7382347,77.6599055 27.4296928,76.9105892 27.4296928,76.0290383 L27.4296928,44.2932308 C27.4296928,43.41168 27.7382347,42.6623636 28.3553206,42.0452778 C28.9724064,41.428192 29.7217227,41.1196501 30.6032736,41.1196501 L41.1818761,41.1196501 Z M35.8925748,73.9133178 C36.7741257,73.9133178 37.523442,73.6047759 38.1405279,72.9876901 C38.7576137,72.3706043 39.0661556,71.6212879 39.0661556,70.7397371 C39.0661556,69.8581862 38.7576137,69.1088698 38.1405279,68.491784 C37.523442,67.8746982 36.7741257,67.5661563 35.8925748,67.5661563 C35.0110239,67.5661563 34.2617076,67.8746982 33.6446218,68.491784 C33.027536,69.1088698 32.7189941,69.8581862 32.7189941,70.7397371 C32.7189941,71.6212879 33.027536,72.3706043 33.6446218,72.9876901 C34.2617076,73.6047759 35.0110239,73.9133178 35.8925748,73.9133178 Z M78.2069848,22.2103981 C78.2069848,23.7971885 77.9425197,25.3839789 77.4135896,26.9707693 C77.0609688,27.8523201 76.443885,29.0864898 75.5623342,30.6732801 C74.5926296,32.5245356 74.0196206,33.8909377 73.8433112,34.7724886 L87.1987969,34.7724886 C89.402673,34.7724886 91.275966,35.5438444 92.818679,37.0865579 C94.361393,38.6292714 95.132749,40.4144106 95.132749,42.4419754 C95.132749,43.676145 94.890323,44.8662378 94.40547,46.0122537 C93.920617,47.1582697 93.32557,48.1279742 92.620331,48.9213694 L92.488098,48.9213694 C93.193338,50.5963155 93.457803,52.4034921 93.281493,54.3429032 C93.105184,56.2823143 92.444021,58.0013372 91.298005,59.4999719 C91.826935,61.174918 91.871012,62.9380177 91.430238,64.7892732 C90.989463,66.6405286 90.240145,68.1832421 89.182285,69.4174117 C89.711215,71.7094416 89.402673,73.6929296 88.2566571,75.3678756 C87.1106412,77.0428217 84.9949207,78.1447588 81.9094956,78.6736889 C80.0582402,79.0263097 77.1932014,79.2026191 73.3143811,79.2026191 L72.9176835,79.2026191 C70.0967235,79.2026191 67.1876079,78.7177658 64.1903365,77.7480612 C62.4272367,77.2191311 60.0250118,76.2714639 56.9836635,74.9050618 C53.9423153,73.5386596 51.6723229,72.8554576 50.1736882,72.8554576 C49.7329138,72.8554576 49.3582536,72.7011856 49.0497117,72.3926437 C48.7411698,72.0841018 48.5868978,71.7094416 48.5868978,71.2686672 L48.5868978,42.9709055 C48.5868978,42.5301311 48.7632072,42.1775103 49.1158279,41.9130453 C50.8789277,40.0617898 53.038727,37.2849067 55.595222,33.5823958 C57.7109425,30.4969708 59.4740422,28.2930946 60.8845232,26.9707693 C61.7660741,26.0892184 62.4713136,24.8991256 63.0002437,23.4004909 C63.3528645,22.51894 63.749562,21.1084611 64.1903365,19.1690499 L64.1903365,19.0368174 C64.7192666,17.0092526 65.2041199,15.4665391 65.6448943,14.4086788 C66.5264452,12.4692677 67.5402266,11.4995631 68.6862425,11.4995631 C71.0664281,11.4995631 73.0499161,12.0725701 74.6367064,13.218586 C77.016892,14.9816858 78.2069848,17.9789572 78.2069848,22.2103981 Z" id="thumbs-up" fill="#FFFFFF"></path>
                </g>
                <g id="Group-88" transform="translate(153.775545, 414.910115)">
                    <g id="Group-87" fill="#4F46E5" stroke="#4F46E5" stroke-width="22.7999997">
                        <path d="M0,48.3379906 L10.8951563,54.7760376 L10.8951563,88.1259814 C10.8951563,92.8480161 14.7231217,96.6759811 19.4451562,96.6759811 L128.890133,96.6759811 C133.612167,96.6759811 137.440132,92.8480161 137.440132,88.1259814 L137.440132,8.5499998 C137.440132,3.8279653 133.612167,1.77635684e-15 128.890133,1.77635684e-15 L19.4451562,1.77635684e-15 C14.7231217,1.77635684e-15 10.8951563,3.8279653 10.8951563,8.5499998 L10.8951563,41.8999437 L0,48.3379906 Z" id="Rectangle-29" transform="translate(68.720066, 48.337991) scale(-1, 1) translate(-68.720066, -48.337991) "></path>
                    </g>
                    <path d="M64.1903331,13.4908295 C70.4525598,13.4908295 76.2474547,15.0563867 81.5750201,18.1874989 C86.9025854,21.3186112 91.131925,25.5479511 94.263038,30.8755164 C97.39415,36.2030818 98.959707,41.9979767 98.959707,48.2602034 C98.959707,54.5224301 97.39415,60.317325 94.263038,65.6448904 C91.131925,70.9724557 86.9025854,75.2017956 81.5750201,78.3329079 C76.2474547,81.4640201 70.4525598,83.0295773 64.1903331,83.0295773 C57.9281064,83.0295773 52.1332115,81.4640201 46.8056461,78.3329079 C41.4780808,75.2017956 37.2487409,70.9724557 34.1176286,65.6448904 C30.9865164,60.317325 29.4209592,54.5224301 29.4209592,48.2602034 C29.4209592,41.9979767 30.9865164,36.2030818 34.1176286,30.8755164 C37.2487409,25.5479511 41.4780808,21.3186112 46.8056461,18.1874989 C52.1332115,15.0563867 57.9281064,13.4908295 64.1903331,13.4908295 Z M88.5849745,30.3147201 C86.715654,27.8846033 84.5659332,25.7348825 82.1358164,23.865562 L73.3032738,32.8383037 C75.9203242,34.427226 78.0233105,36.5302123 79.6122328,39.1472627 L88.5849745,30.3147201 Z M64.1903331,61.7193159 C67.9289762,61.7193159 71.1068208,60.4107918 73.7238711,57.7937414 C76.3409215,55.176691 77.6494456,51.9988465 77.6494456,48.2602034 C77.6494456,44.5215603 76.3409215,41.3437158 73.7238711,38.7266654 C71.1068208,36.109615 67.9289762,34.8010909 64.1903331,34.8010909 C60.45169,34.8010909 57.2738455,36.109615 54.6567951,38.7266654 C52.0397447,41.3437158 50.7312206,44.5215603 50.7312206,48.2602034 C50.7312206,51.9988465 52.0397447,55.176691 54.6567951,57.7937414 C57.2738455,60.4107918 60.45169,61.7193159 64.1903331,61.7193159 Z M46.2448498,23.865562 C43.814733,25.7348825 41.6650122,27.8846033 39.7956917,30.3147201 L48.7684334,39.1472627 C50.3573557,36.5302123 52.460342,34.427226 55.0773924,32.8383037 L46.2448498,23.865562 Z M39.7956917,66.2056867 C41.6650122,68.6358035 43.814733,70.7855243 46.2448498,72.6548448 L55.0773924,63.6821031 C52.460342,62.0931808 50.3573557,59.9901945 48.7684334,57.3731441 L39.7956917,66.2056867 Z M82.1358164,72.6548448 C84.5659332,70.7855243 86.715654,68.6358035 88.5849745,66.2056867 L79.6122328,57.3731441 C78.0233105,59.9901945 75.9203242,62.0931808 73.3032738,63.6821031 L82.1358164,72.6548448 Z" id="life-ring" fill="#FFFFFF"></path>
                </g>
                <g id="Group-89" transform="translate(893.587802, 514.473432)">
                    <path d="M0,48.3379906 L1.0943063,48.9846261 C7.168524,52.5739366 10.8951564,59.1046675 10.8951564,66.1601102 L10.8951564,84.6786015 C10.8951564,91.3045711 16.2665662,96.6759811 22.8925361,96.6759811 L128.890133,96.6759811 C133.612167,96.6759811 137.440133,92.8480161 137.440133,88.1259814 L137.440133,8.5499998 C137.440133,3.8279653 133.612167,1.77635684e-15 128.890133,1.77635684e-15 L19.4451562,1.77635684e-15 C14.7231217,1.77635684e-15 10.8951564,3.8279653 10.8951564,8.5499998 L10.8951564,41.8999437 L0,48.3379906 Z" id="Rectangle-29" stroke="#4F46E5" stroke-width="22.7999997" fill="#4F46E5"></path>
                    <path d="M104.876698,48.75802 C104.876698,54.392623 103.468047,59.606732 100.650746,64.4003489 C97.8334464,69.1939658 94.0279864,72.9994255 89.2343694,75.816726 C84.4407524,78.6340266 79.2266434,80.0426778 73.5920408,80.0426778 C67.9574378,80.0426778 62.7433289,78.6340266 57.9497119,75.816726 C53.156095,72.9994255 49.3506353,69.1939658 46.5333348,64.4003489 C43.7160343,59.606732 42.307383,54.392623 42.307383,48.75802 C42.307383,43.123417 43.7160343,37.909308 46.5333348,33.1156911 C49.3506353,28.3220742 53.156095,24.5166145 57.9497119,21.6993139 C62.7433289,18.8820134 67.9574378,17.4733622 73.5920408,17.4733622 C79.2266434,17.4733622 84.4407524,18.8820134 89.2343694,21.6993139 C94.0279864,24.5166145 97.8334464,28.3220742 100.650746,33.1156911 C103.468047,37.909308 104.876698,43.123417 104.876698,48.75802 Z M74.4750755,27.8174829 C71.1111332,27.8174829 68.2097335,28.5323212 65.7708764,29.9619957 C63.5002157,31.2234739 61.4818507,33.1997903 59.7157813,35.890943 C59.4634857,36.2273378 59.3793865,36.584756 59.4634857,36.9631994 C59.5475849,37.3416428 59.75783,37.6570124 60.0942248,37.909308 L64.5093982,41.1891512 C64.7616939,41.4414468 65.0980887,41.5465693 65.5185808,41.5045207 C65.9390728,41.4624721 66.2754676,41.2732503 66.5277633,40.9368555 C67.8733406,39.3389826 68.9245717,38.2457028 69.6814586,37.6570124 C70.8588376,36.8160263 72.2044149,36.3955342 73.7181887,36.3955342 C75.1478632,36.3955342 76.4724153,36.795003 77.6918444,37.5939385 C78.9112744,38.392874 79.5209884,39.3810331 79.5209884,40.5584121 C79.5209884,41.4834954 79.1425444,42.2824329 78.3856574,42.9552206 C77.8810664,43.3757126 76.9139324,44.0064517 75.484258,44.8474378 L75.2319624,44.9735856 C73.1294982,46.1509645 71.657775,47.2021976 70.8167889,48.1272809 C69.3030152,49.7251539 68.5461283,51.6173711 68.5461283,53.8039325 L68.5461283,54.3085238 C68.5461283,54.7290159 68.6933014,55.086436 68.9876456,55.3807802 C69.2819899,55.6751245 69.63941,55.8222976 70.0599021,55.8222976 L77.1241794,55.8222976 C77.5446714,55.8222976 77.9020914,55.6751245 78.1964364,55.3807802 C78.4907804,55.086436 78.6379534,54.7290159 78.6379534,54.3085238 L78.6379534,54.182376 C78.6379534,53.5095883 78.9743484,52.9208978 79.6471354,52.4163066 C80.0676284,52.0799118 80.8665654,51.5753205 82.0439444,50.9025328 C84.2305054,49.5569555 85.7863304,48.3795765 86.7114134,47.370394 C88.3092864,45.6043246 89.1082224,43.3757126 89.1082224,40.6845599 C89.1082224,38.3298001 88.3933834,36.1642639 86.9637094,34.1879475 C85.5340344,32.2116311 83.6838664,30.6558087 81.4132054,29.5204784 C79.1425444,28.3851481 76.8298354,27.8174829 74.4750755,27.8174829 Z M73.5920408,59.1021407 C71.9941679,59.1021407 70.6275672,59.6698059 69.4922369,60.8051362 C68.3569066,61.9404665 67.7892414,63.3070672 67.7892414,64.9049401 C67.7892414,66.5028131 68.3569066,67.8694138 69.4922369,69.0047441 C70.6275672,70.1400744 71.9941679,70.7077396 73.5920408,70.7077396 C75.1899138,70.7077396 76.5565145,70.1400744 77.6918444,69.0047441 C78.8271754,67.8694138 79.3948404,66.5028131 79.3948404,64.9049401 C79.3948404,63.3070672 78.8271754,61.9404665 77.6918444,60.8051362 C76.5565145,59.6698059 75.1899138,59.1021407 73.5920408,59.1021407 Z" id="question-circle" fill="#FFFFFF"></path>
                </g>
            </g>
            <g id="Group-33">
                <circle id="Oval" fill="#4F46E5" fill-rule="nonzero" opacity="0.253" cx="95" cy="626.35" r="26"></circle>
                <circle id="Oval" fill="#4F46E5" fill-rule="nonzero" opacity="0.451" cx="24" cy="268.35" r="24"></circle>
                <circle id="Oval" fill="#4F46E5" fill-rule="nonzero" opacity="0.494" cx="98.5" cy="141.85" r="15.5"></circle>
                <g id="Group" opacity="0.7" stroke-linecap="round" transform="translate(324.650000, 0.000000)" stroke="#4F46E5" stroke-width="12">
                    <path d="M48.542,36.247 L1.44328993e-15,11.514 M11.514,48.542 L36.247,1.44328993e-15" id="Shape"></path>
                </g>
                <g id="Group" opacity="0.7" stroke-linecap="round" transform="translate(1305.664000, 557.747000)" stroke="#4F46E5" stroke-width="12">
                    <path d="M15.208,1.55431223e-15 L26.382,41.702 M41.702,15.208 L-1.44328993e-15,26.382" id="Shape"></path>
                </g>
                <path d="M251.5,512.35 C260.06,512.35 267,505.41 267,496.85 C267,488.29 260.06,481.35 251.5,481.35 C242.94,481.35 236,488.29 236,496.85 C236,505.41 242.94,512.35 251.5,512.35 Z" id="Path" fill="#4F46E5" fill-rule="nonzero" opacity="0.212"></path>
                <circle id="Oval" fill="#4F46E5" fill-rule="nonzero" opacity="0.15" cx="1056" cy="74.35" r="26"></circle>
                <circle id="Oval" fill="#4F46E5" fill-rule="nonzero" opacity="0.304" cx="1159.5" cy="188.85" r="15.5"></circle>
                <circle id="Oval" fill="#4F46E5" fill-rule="nonzero" opacity="0.158" cx="1418.468" cy="406.35" r="24"></circle>
                <g id="Group" opacity="0.7" stroke-linecap="round" transform="translate(1336.336000, 129.686000)" stroke="#4F46E5" stroke-width="12">
                    <path d="M1.49880108e-15,38.168 L40.693,4.023 M2.959,1.49880108e-15 L37.105,40.693" id="Shape"></path>
                </g>
            </g>
        </g>
    </g>
</svg>