<?xml version="1.0" encoding="UTF-8"?>
<svg width="650px" height="265px" viewBox="0 0 650 265" version="1.1" xmlns="http://www.w3.org/2000/svg" xmlns:xlink="http://www.w3.org/1999/xlink">
    <title>hero</title>
    <g id="Page-1" stroke="none" stroke-width="1" fill="none" fill-rule="evenodd">
        <g id="hero" transform="translate(1.040715, 1.959285)">
            <path d="M124.967184,39.8057304 C124.967184,35.7790626 128.22326,32.5223436 132.257757,32.5223436 L385.831162,32.5223436 C389.858187,32.5223436 393.121736,35.781215 393.121736,39.8057304 L393.121736,213.348192 C393.121736,217.37486 389.86566,220.631579 385.831162,220.631579 L132.257757,220.631579 C128.230732,220.631579 124.967184,217.372708 124.967184,213.348192 L124.967184,39.8057304 Z" id="Case" stroke="#4F46E5" stroke-width="2.08142999" fill="#FFFFFF" fill-rule="nonzero"></path>
            <path d="M141.368952,51.7772491 C141.368952,50.0530944 142.772623,48.653426 144.495219,48.653426 L373.333355,48.653426 C375.062113,48.653426 376.459622,50.045108 376.459622,51.7772491 L376.459622,181.082731 C376.459622,182.806886 375.055951,184.206554 373.333355,184.206554 L144.495219,184.206554 C142.766461,184.206554 141.368952,182.814872 141.368952,181.082731 L141.368952,51.7772491 Z" id="Case" stroke="#4F46E5" stroke-width="2.08142999" fill="#FFFFFF" fill-rule="nonzero"></path>
            <polygon id="Case" stroke="#4F46E5" stroke-width="2.08142999" fill="#FFFFFF" fill-rule="nonzero" points="239.948832 220.631579 278.400433 220.631579 280.996421 254.194638 237.352845 254.194638"></polygon>
            <path d="M221.293692,254.45221 L221.293692,257.967228 C221.293692,260.047539 222.983746,261.73982 225.06368,261.73982 L293.285585,261.73982 C295.361729,261.73982 297.055573,260.047343 297.055573,257.967228 L297.055573,254.45221 C297.055573,254.306483 296.94291,254.194637 296.794023,254.194637 L221.555242,254.194637 C221.409433,254.194637 221.293692,254.310098 221.293692,254.45221 Z" id="Keyboard" stroke="#4F46E5" stroke-width="2.08142999" fill="#FFFFFF" fill-rule="nonzero" transform="translate(259.174633, 257.967228) scale(-1, 1) rotate(-180.000000) translate(-259.174633, -257.967228) "></path>
            <ellipse id="Oval-6" stroke="#4F46E5" stroke-width="2.08142999" cx="259.174633" cy="203.85005" rx="4.81639213" ry="4.81330685"></ellipse>
            <rect id="Case" stroke="#4F46E5" stroke-width="2.08142999" fill="#FFFFFF" fill-rule="nonzero" x="100.234359" y="160.790467" width="51.5470788" height="100.949355" rx="6.24428997"></rect>
            <polygon id="Case" stroke="#4F46E5" stroke-width="2.08142999" fill="#FFFFFF" fill-rule="nonzero" points="100.234359 171.978153 151.781438 171.978153 151.781438 246.727507 100.234359 246.727507"></polygon>
            <rect id="Rectangle-11" fill="#4F46E5" fill-rule="nonzero" x="113.771659" y="165.213505" width="24.7328244" height="2.08142999" rx="1.040715"></rect>
            <rect id="Rectangle-11" fill="#4F46E5" fill-rule="nonzero" x="123.144098" y="251.072493" width="5.93587786" height="5.93207547" rx="2.96603774"></rect>
            <ellipse id="Oval-6" stroke="#4F46E5" stroke-width="2.08142999" fill="#FFFFFF" fill-rule="nonzero" cx="114.813042" cy="209.183714" rx="3.9051828" ry="3.90268123"></ellipse>
            <rect id="Rectangle-11" fill="#4F46E5" fill-rule="nonzero" x="123.925135" y="202.419067" width="18.2241864" height="2.08142999" rx="1.040715"></rect>
            <rect id="Rectangle-11" fill="#4F46E5" fill-rule="nonzero" x="123.925135" y="208.142999" width="13.017276" height="2.08142999" rx="1.040715"></rect>
            <rect id="Rectangle-11" fill="#4F46E5" fill-rule="nonzero" x="123.925135" y="213.866931" width="7.81036561" height="2.08142999" rx="1.040715"></rect>
            <ellipse id="Oval-7" stroke="#4F46E5" stroke-width="2.08142999" fill="#FFFFFF" fill-rule="nonzero" cx="73.8086221" cy="169.766634" rx="39.9637045" ry="39.9374379"></ellipse>
            <rect id="Case" stroke="#4F46E5" stroke-width="2.08142999" fill="#FFFFFF" fill-rule="nonzero" x="318.664251" y="121.503476" width="192.654351" height="129.308838" rx="6.24428997"></rect>
            <path d="M305.385295,251.066505 L305.385295,256.276068 C305.385295,259.289062 307.833622,261.739821 310.847635,261.739821 L519.135218,261.739821 C522.146726,261.739821 524.597558,259.290608 524.597558,256.276068 L524.597558,251.066505 C524.597558,250.924848 524.484377,250.812314 524.338698,250.812314 L305.644155,250.812314 C305.497928,250.812314 305.385295,250.924815 305.385295,251.066505 Z" id="Keyboard" stroke="#4F46E5" stroke-width="2.08142999" fill="#FFFFFF" fill-rule="nonzero"></path>
            <path d="M429.388133,250.92945 L400.229692,250.928945 C401.393066,254.002208 404.36171,256.132528 407.767564,256.132528 L421.850418,256.132528 C425.256685,256.132528 428.22475,254.00248 429.388133,250.92945 Z" id="Notch" stroke="#4F46E5" stroke-width="2.08142999" fill="#FFFFFF" fill-rule="nonzero"></path>
            <rect id="Screen" stroke="#4F46E5" stroke-width="2.08142999" fill="#FFFFFF" fill-rule="nonzero" x="327.254319" y="133.731877" width="175.319716" height="105.073079" rx="2.08142999"></rect>
            <ellipse id="Oval-3" fill="#293347" fill-rule="nonzero" cx="253.316858" cy="50.9950348" rx="1.3017276" ry="1.30089374"></ellipse>
            <path d="M178.858707,13.0089374 L299.137003,13.0089374 L299.137003,128.268509 C299.137003,132.289805 295.867796,135.553128 291.84575,135.553128 L186.149959,135.553128 C182.124919,135.553128 178.858707,132.288622 178.858707,128.268509 L178.858707,13.0089374 Z" id="Case" stroke="#4F46E5" stroke-width="2.08142999" fill="#FFFFFF" fill-rule="nonzero"></path>
            <path d="M178.858707,7.27846536 C178.858707,3.26033544 182.128143,6.21724894e-15 186.149959,6.21724894e-15 L291.84575,6.21724894e-15 C295.87276,6.21724894e-15 299.137003,3.25684642 299.137003,7.27846536 L299.137003,15.0903674 L178.858707,15.0903674 L178.858707,7.27846536 Z" id="Case" stroke="#4F46E5" stroke-width="2.08142999" fill="#FFFFFF" fill-rule="nonzero"></path>
            <ellipse id="Oval-5" fill="#4F46E5" fill-rule="nonzero" cx="190.052897" cy="7.54518372" rx="2.34310968" ry="2.34160874"></ellipse>
            <ellipse id="Oval-5" fill="#4F46E5" fill-rule="nonzero" cx="197.863263" cy="7.54518372" rx="2.34310968" ry="2.34160874"></ellipse>
            <ellipse id="Oval-5" fill="#4F46E5" fill-rule="nonzero" cx="205.673628" cy="7.54518372" rx="2.34310968" ry="2.34160874"></ellipse>
            <rect id="Rectangle-11" fill="#4F46E5" fill-rule="nonzero" x="193.437389" y="88.9811321" width="4.68621937" height="2.08142999" rx="1.040715"></rect>
            <rect id="Rectangle-11" fill="#4F46E5" fill-rule="nonzero" x="193.437389" y="36.9453823" width="4.68621937" height="2.08142999" rx="1.040715"></rect>
            <path d="M202.288469,36.9453823 L209.319132,36.9453823 C209.893904,36.9453823 210.359847,37.4113263 210.359847,37.9860973 C210.359847,38.5608683 209.893904,39.0268123 209.319132,39.0268123 L202.288469,39.0268123 C201.713698,39.0268123 201.247754,38.5608683 201.247754,37.9860973 C201.247754,37.4113263 201.713698,36.9453823 202.288469,36.9453823 Z" id="Rectangle-11" fill="#4F46E5" fill-rule="nonzero"></path>
            <path d="M214.004018,36.9453823 L221.034681,36.9453823 C221.609452,36.9453823 222.075396,37.4113263 222.075396,37.9860973 C222.075396,38.5608683 221.609452,39.0268123 221.034681,39.0268123 L214.004018,39.0268123 C213.429247,39.0268123 212.963303,38.5608683 212.963303,37.9860973 C212.963303,37.4113263 213.429247,36.9453823 214.004018,36.9453823 Z" id="Rectangle-11" fill="#4F46E5" fill-rule="nonzero"></path>
            <path d="M225.719566,36.9453823 L238.738176,36.9453823 C239.312947,36.9453823 239.778891,37.4113263 239.778891,37.9860973 C239.778891,38.5608683 239.312947,39.0268123 238.738176,39.0268123 L225.719566,39.0268123 C225.144795,39.0268123 224.678851,38.5608683 224.678851,37.9860973 C224.678851,37.4113263 225.144795,36.9453823 225.719566,36.9453823 Z" id="Rectangle-11" fill="#4F46E5" fill-rule="nonzero"></path>
            <path d="M243.423061,36.9453823 L262.689964,36.9453823 C263.264735,36.9453823 263.730679,37.4113263 263.730679,37.9860973 C263.730679,38.5608683 263.264735,39.0268123 262.689964,39.0268123 L243.423061,39.0268123 C242.84829,39.0268123 242.382346,38.5608683 242.382346,37.9860973 C242.382346,37.4113263 242.84829,36.9453823 243.423061,36.9453823 Z" id="Rectangle-11" fill="#4F46E5" fill-rule="nonzero"></path>
            <rect id="Rectangle-11" fill="#4F46E5" fill-rule="nonzero" x="193.437389" y="47.3525323" width="4.68621937" height="2.08142999" rx="1.040715"></rect>
            <rect id="Rectangle-11" fill="#4F46E5" fill-rule="nonzero" x="193.437389" y="57.7596822" width="4.68621937" height="2.08142999" rx="1.040715"></rect>
            <rect id="Rectangle-11" fill="#4F46E5" fill-rule="nonzero" x="193.437389" y="68.1668322" width="4.68621937" height="2.08142999" rx="1.040715"></rect>
            <rect id="Rectangle-11" fill="#4F46E5" fill-rule="nonzero" x="193.437389" y="78.5739821" width="4.68621937" height="2.08142999" rx="1.040715"></rect>
            <rect id="Rectangle-11" fill="#4F46E5" fill-rule="nonzero" x="193.437389" y="99.388282" width="4.68621937" height="2.08142999" rx="1.040715"></rect>
            <rect id="Rectangle-11" fill="#4F46E5" fill-rule="nonzero" x="193.437389" y="109.795432" width="4.68621937" height="2.08142999" rx="1.040715"></rect>
            <rect id="Rectangle-11" fill="#4F46E5" fill-rule="nonzero" x="201.247754" y="47.3525323" width="18.2241864" height="2.08142999" rx="1.040715"></rect>
            <rect id="Rectangle-11" fill="#4F46E5" fill-rule="nonzero" x="222.075396" y="47.3525323" width="31.2414624" height="2.08142999" rx="1.040715"></rect>
            <rect id="Rectangle-11" fill="#4F46E5" fill-rule="nonzero" x="255.920314" y="47.3525323" width="13.017276" height="2.08142999" rx="1.040715"></rect>
            <rect id="Rectangle-11" fill="#4F46E5" fill-rule="nonzero" x="201.247754" y="57.7596822" width="13.017276" height="2.08142999" rx="1.040715"></rect>
            <rect id="Rectangle-11" fill="#4F46E5" fill-rule="nonzero" x="216.868485" y="57.7596822" width="13.017276" height="2.08142999" rx="1.040715"></rect>
            <rect id="Rectangle-11" fill="#4F46E5" fill-rule="nonzero" x="232.489217" y="57.7596822" width="7.81036561" height="2.08142999" rx="1.040715"></rect>
            <rect id="Rectangle-11" fill="#4F46E5" fill-rule="nonzero" x="201.247754" y="68.1668322" width="26.034552" height="2.08142999" rx="1.040715"></rect>
            <rect id="Rectangle-11" fill="#4F46E5" fill-rule="nonzero" x="229.885761" y="68.1668322" width="18.2241864" height="2.08142999" rx="1.040715"></rect>
            <rect id="Rectangle-11" fill="#4F46E5" fill-rule="nonzero" x="201.247754" y="78.5739821" width="26.034552" height="2.08142999" rx="1.040715"></rect>
            <rect id="Rectangle-11" fill="#4F46E5" fill-rule="nonzero" x="229.885761" y="78.5739821" width="33.8449176" height="2.08142999" rx="1.040715"></rect>
            <rect id="Rectangle-11" fill="#4F46E5" fill-rule="nonzero" x="201.247754" y="88.9811321" width="18.2241864" height="2.08142999" rx="1.040715"></rect>
            <rect id="Rectangle-11" fill="#4F46E5" fill-rule="nonzero" x="222.075396" y="88.9811321" width="18.2241864" height="2.08142999" rx="1.040715"></rect>
            <rect id="Rectangle-11" fill="#4F46E5" fill-rule="nonzero" x="242.903038" y="88.9811321" width="10.4138208" height="2.08142999" rx="1.040715"></rect>
            <rect id="Rectangle-11" fill="#4F46E5" fill-rule="nonzero" x="201.247754" y="99.388282" width="33.8449176" height="2.08142999" rx="1.040715"></rect>
            <rect id="Rectangle-11" fill="#4F46E5" fill-rule="nonzero" x="201.247754" y="109.795432" width="15.6207312" height="2.08142999" rx="1.040715"></rect>
            <path d="M413.950711,94.7050646 L556.618722,94.7050646 L556.618722,196.183652 C556.618722,200.203647 553.35883,203.459782 549.332934,203.459782 L421.2365,203.459782 C417.215183,203.459782 413.950711,200.197929 413.950711,196.183652 L413.950711,94.7050646 Z" id="Case" stroke="#4F46E5" stroke-width="2.08142999" fill="#FFFFFF" fill-rule="nonzero"></path>
            <path d="M413.950711,88.9745925 C413.950711,84.9533948 417.210517,81.6961271 421.2365,81.6961271 L549.332934,81.6961271 C553.357128,81.6961271 556.618722,84.9531777 556.618722,88.9745925 L556.618722,96.7864945 L413.950711,96.7864945 L413.950711,88.9745925 Z" id="Case" stroke="#4F46E5" stroke-width="2.08142999" fill="#FFFFFF" fill-rule="nonzero"></path>
            <ellipse id="Oval-5" fill="#4F46E5" fill-rule="nonzero" cx="425.144902" cy="89.2413108" rx="2.34310968" ry="2.34160874"></ellipse>
            <ellipse id="Oval-5" fill="#4F46E5" fill-rule="nonzero" cx="432.955267" cy="89.2413108" rx="2.34310968" ry="2.34160874"></ellipse>
            <ellipse id="Oval-5" fill="#4F46E5" fill-rule="nonzero" cx="440.765633" cy="89.2413108" rx="2.34310968" ry="2.34160874"></ellipse>
            <ellipse id="Oval-6" stroke="#4F46E5" stroke-width="2.34160874" fill="#FFFFFF" fill-rule="nonzero" cx="502.207176" cy="149.082423" rx="26.034552" ry="26.0178749"></ellipse>
            <polygon id="Rectangle-12" stroke="#4F46E5" stroke-width="2.08142999" fill="#FFFFFF" fill-rule="nonzero" points="499.342708 119.942403 499.342708 126.186693 505.592335 126.186693 505.592335 119.942403"></polygon>
            <polygon id="Rectangle-12" stroke="#4F46E5" stroke-width="2.08142999" fill="#FFFFFF" fill-rule="nonzero" points="499.082362 171.978153 499.082362 178.222443 505.331989 178.222443 505.331989 171.978153"></polygon>
            <polygon id="Rectangle-12" stroke="#4F46E5" stroke-width="2.08142999" fill="#FFFFFF" fill-rule="nonzero" points="473.04781 146.220457 473.04781 152.464747 479.297437 152.464747 479.297437 146.220457"></polygon>
            <polygon id="Rectangle-12" stroke="#4F46E5" stroke-width="2.08142999" fill="#FFFFFF" fill-rule="nonzero" points="524.856569 146.220457 524.856569 152.464747 531.106196 152.464747 531.106196 146.220457"></polygon>
            <line x1="528.241728" y1="125.666336" x2="528.241728" y2="145.179742" id="Line" stroke="#4F46E5" stroke-width="2.08142999" stroke-linecap="square"></line>
            <line x1="528.241728" y1="152.985104" x2="528.241728" y2="172.49851" id="Line" stroke="#4F46E5" stroke-width="2.08142999" stroke-linecap="square"></line>
            <ellipse id="Oval-5" fill="#4F46E5" fill-rule="nonzero" cx="528.241728" cy="124.885799" rx="3.12414624" ry="3.12214499"></ellipse>
            <ellipse id="Oval-5" fill="#4F46E5" fill-rule="nonzero" cx="528.241728" cy="174.319762" rx="3.12414624" ry="3.12214499"></ellipse>
            <g id="Group-60" transform="translate(439.463238, 117.600794)" fill="#FFFFFF" fill-rule="nonzero" stroke="#4F46E5" stroke-width="2.08142999">
                <rect id="Rectangle-15" x="-4.4408921e-16" y="-2.22044605e-15" width="16.1427564" height="16.1310824" rx="3.12214499"></rect>
                <rect id="Rectangle-15" x="-4.4408921e-16" y="23.4160874" width="16.1427564" height="16.1310824" rx="3.12214499"></rect>
                <rect id="Rectangle-15" x="-4.4408921e-16" y="46.8321748" width="16.1427564" height="16.1310824" rx="3.12214499"></rect>
            </g>
            <ellipse id="Oval-8" stroke="#4F46E5" stroke-width="2.08142999" fill="#FFFFFF" fill-rule="nonzero" cx="631.338554" cy="237.02284" rx="15.6207312" ry="15.6107249"></ellipse>
            <ellipse id="Oval-8" stroke="#4F46E5" stroke-width="2.08142999" fill="#FFFFFF" fill-rule="nonzero" cx="631.338554" cy="237.02284" rx="9.11209321" ry="9.10625621"></ellipse>
            <ellipse id="Oval-8" stroke="#4F46E5" stroke-width="2.08142999" fill="#FFFFFF" fill-rule="nonzero" cx="610.510912" cy="213.346574" rx="5.20691041" ry="5.20357498"></ellipse>
            <path d="M587.599172,212.04568 C587.024401,212.04568 586.558457,212.511624 586.558457,213.086395 L586.558457,256.796425 C586.558457,259.67028 588.888177,262 591.762032,262 L627.679403,262 C630.553258,262 632.882978,259.67028 632.882978,256.796425 L632.882978,213.086395 C632.882978,212.511624 632.417034,212.04568 631.842263,212.04568 L587.599172,212.04568 Z" id="Rectangle-16" stroke="#4F46E5" stroke-width="2.08142999" fill="#FFFFFF" fill-rule="nonzero"></path>
            <rect id="Rectangle-16" stroke="#4F46E5" stroke-width="2.08142999" fill="#FFFFFF" fill-rule="nonzero" x="608.687826" y="226.095333" width="13.5393012" height="16.6514399" rx="3.12214499"></rect>
            <line x1="615.327304" y1="212.435948" x2="615.327304" y2="224.274081" id="Line-2" stroke="#4F46E5" stroke-width="2.08142999" stroke-linecap="square"></line>
            <path d="M556.879735,261.739821 C565.506827,261.739821 572.500466,261.739821 572.500466,261.739821 C572.500466,253.118256 565.506827,246.129096 556.879735,246.129096 C548.252643,246.129096 541.259004,253.118256 541.259004,261.739821 C541.259004,261.739821 548.252643,261.739821 556.879735,261.739821 Z" id="Oval-8" stroke="#4F46E5" stroke-width="2.08142999" fill="#FFFFFF" fill-rule="nonzero"></path>
            <rect id="Rectangle-11" fill="#4F46E5" fill-rule="nonzero" x="555.838353" y="245.608739" width="2.08276416" height="3.38232373" rx="1.04138208"></rect>
            <path d="M15.350674,231.038601 C6.87273084,231.038601 2.13162821e-14,237.911332 2.13162821e-14,246.389275 C2.13162821e-14,254.867218 6.87273084,261.739949 15.350674,261.739949 L78.3663381,261.739949 C79.2284947,261.739949 79.9274106,261.041033 79.9274106,260.178876 L79.9274106,257.762884 C79.9274106,256.670559 79.083017,255.764066 77.9934353,255.686684 C70.8396605,255.178578 67.0397972,252.03596 67.0397972,246.389275 C67.0397972,240.742588 70.8396638,237.599969 77.9934446,237.091865 C79.0830195,237.014477 79.9274106,236.107985 79.9274106,235.015666 L79.9274106,232.599673 C79.9274106,231.737517 79.2284947,231.038601 78.3663381,231.038601 L15.350674,231.038601 Z" id="Rectangle-17" stroke="#4F46E5" stroke-width="2.08142999" fill="#FFFFFF" fill-rule="nonzero"></path>
            <path d="M79.1457052,256.340477 C79.1457052,256.59229 78.9414395,256.796425 78.689465,256.796425 L78.689465,256.796425 L71.312712,256.796425 L15.1007073,256.796425 C9.3493128,256.796425 4.68688645,252.136985 4.68688645,246.389275 C4.68688645,240.641565 9.3493128,235.982125 15.1007073,235.982125 L71.312712,235.982125 L78.689465,235.982125 L78.689465,235.982125 C78.9414395,235.982125 79.1457052,236.18626 79.1457052,236.438073" id="Rectangle-19" stroke="#4F46E5" stroke-width="2.08142999"></path>
            <rect id="Rectangle-18" fill="#4F46E5" fill-rule="nonzero" x="13.0179431" y="241.966236" width="54.6725593" height="2.08142999" rx="1.040715"></rect>
            <rect id="Rectangle-18" fill="#4F46E5" fill-rule="nonzero" x="13.0179431" y="248.470705" width="54.6725593" height="2.08142999" rx="1.040715"></rect>
            <path d="M64.0858271,179.095808 C62.80816,177.960645 61.5304929,176.825481 60.2528258,175.690318 C58.2167261,173.883323 56.1864606,172.070537 54.1503609,170.263542 C53.6836332,169.852335 53.2169055,169.435336 52.7560119,169.024129 C52.7560119,169.568544 52.7560119,170.11875 52.7560119,170.663166 C54.033679,169.528002 55.3113461,168.392839 56.5890132,167.257675 C58.6251129,165.45068 60.6553784,163.637894 62.6914781,161.830899 C63.1582058,161.419692 63.6249335,161.002693 64.0858271,160.591486 C64.5408867,160.18607 64.5350526,159.357864 64.0858271,158.952449 C63.6015971,158.506492 62.924842,158.518075 62.4347779,158.952449 C61.1571107,160.087612 59.8794436,161.222776 58.6017765,162.357939 C56.5656769,164.164934 54.5354113,165.977721 52.4993117,167.784715 C52.0325839,168.195923 51.5658562,168.612921 51.1049626,169.024129 C50.6557372,169.423752 50.6557372,170.263542 51.1049626,170.663166 C52.3826297,171.798329 53.6602968,172.933493 54.937964,174.068656 C56.9740636,175.875651 59.0043292,177.688437 61.0404288,179.495432 C61.5071565,179.906639 61.9738842,180.323638 62.4347779,180.734845 C62.8898374,181.140261 63.6424358,181.215552 64.0858271,180.734845 C64.4942139,180.29468 64.5700571,179.530182 64.0858271,179.095808 L64.0858271,179.095808 Z" id="Shape" fill="#4F46E5" fill-rule="nonzero"></path>
            <path d="M83.5418667,160.594241 C84.8195338,161.729404 86.0972009,162.864568 87.374868,163.999731 C89.4109677,165.806726 91.4412332,167.619513 93.4773329,169.426508 C93.9440606,169.837715 94.4107883,170.254714 94.8716819,170.665921 C94.8716819,170.121506 94.8716819,169.571299 94.8716819,169.026884 C93.5940148,170.162047 92.3163477,171.297211 91.0386806,172.432374 C89.0025809,174.239369 86.9723154,176.052156 84.9362157,177.85915 C84.469488,178.270358 84.0027603,178.687356 83.5418667,179.098564 C83.0868071,179.503979 83.0926412,180.332185 83.5418667,180.737601 C84.0260967,181.183558 84.7028518,181.171974 85.1929159,180.737601 C86.4705831,179.602437 87.7482502,178.467274 89.0259173,177.33211 C91.0620169,175.525115 93.0922825,173.712329 95.1283821,171.905334 C95.5951099,171.494127 96.0618376,171.077128 96.5227312,170.665921 C96.9719566,170.266297 96.9719566,169.426508 96.5227312,169.026884 C95.2450641,167.89172 93.967397,166.756557 92.6897298,165.621393 C90.6536302,163.814399 88.6233646,162.001612 86.587265,160.194617 C86.1205373,159.78341 85.6538096,159.366411 85.1929159,158.955204 C84.7378564,158.549789 83.985258,158.474497 83.5418667,158.955204 C83.1334799,159.395369 83.0576367,160.159867 83.5418667,160.594241 L83.5418667,160.594241 Z" id="Shape" fill="#4F46E5" fill-rule="nonzero"></path>
            <path d="M69.6530136,185.916427 C70.0030594,184.87393 70.3472711,183.831433 70.6973169,182.783145 C71.5315927,180.27536 72.3658685,177.773367 73.2001443,175.265583 C74.2036089,172.242341 75.2070734,169.224892 76.2163721,166.20165 C77.0856525,163.589616 77.9549329,160.977582 78.8242132,158.365547 C79.2384341,157.097176 79.7051618,155.834596 80.0902121,154.54885 C80.0960462,154.531475 80.1018803,154.5141 80.1077144,154.496725 C80.3002396,153.923352 79.8860188,153.205187 79.2909409,153.071979 C78.6491903,152.927188 78.0599466,153.263103 77.8557532,153.88281 C77.5057074,154.925307 77.1614957,155.967804 76.81145,157.016093 C75.9771742,159.523877 75.1428984,162.02587 74.3086226,164.533655 C73.305158,167.556896 72.3016934,170.574346 71.2923947,173.597587 C70.4231144,176.209622 69.553834,178.821656 68.6845536,181.43369 C68.2703328,182.69627 67.8036051,183.95885 67.4185547,185.244596 C67.4127206,185.261971 67.4068865,185.279346 67.4010524,185.296721 C67.2085272,185.870094 67.6227481,186.588259 68.2178259,186.721467 C68.8595765,186.866258 69.4488203,186.530342 69.6530136,185.916427 L69.6530136,185.916427 Z" id="Shape" fill="#4F46E5" fill-rule="nonzero"></path>
        </g>
    </g>
</svg>