<svg width="650" height="265" viewBox="0 0 650 265" fill="none" xmlns="http://www.w3.org/2000/svg">
<g clip-path="url(#clip0_216_101)">
<path d="M126.008 41.7653C126.008 37.7387 129.264 34.4819 133.298 34.4819H386.872C390.899 34.4819 394.162 37.7408 394.162 41.7653V215.308C394.162 219.334 390.906 222.591 386.872 222.591H133.298C129.271 222.591 126.008 219.332 126.008 215.308V41.7653Z" fill="white" stroke="#8F00FF" stroke-width="2.08143"/>
<path d="M142.41 53.7366C142.41 52.0125 143.814 50.6128 145.536 50.6128H374.375C376.103 50.6128 377.501 52.0045 377.501 53.7366V183.042C377.501 184.766 376.097 186.166 374.375 186.166H145.536C143.808 186.166 142.41 184.774 142.41 183.042V53.7366Z" fill="white" stroke="#8F00FF" stroke-width="2.08143"/>
<path d="M240.99 222.591H279.441L282.037 256.154H238.394L240.99 222.591Z" fill="white" stroke="#8F00FF" stroke-width="2.08143"/>
<path d="M222.335 263.442V259.927C222.335 257.846 224.025 256.154 226.105 256.154H294.327C296.403 256.154 298.097 257.847 298.097 259.927V263.442C298.097 263.587 297.984 263.699 297.835 263.699H222.597C222.451 263.699 222.335 263.584 222.335 263.442Z" fill="white" stroke="#8F00FF" stroke-width="2.08143"/>
<path d="M260.216 210.623C262.876 210.623 265.032 208.468 265.032 205.809C265.032 203.151 262.876 200.996 260.216 200.996C257.556 200.996 255.399 203.151 255.399 205.809C255.399 208.468 257.556 210.623 260.216 210.623Z" stroke="#8F00FF" stroke-width="2.08143"/>
<path d="M146.578 162.75H107.52C104.071 162.75 101.275 165.546 101.275 168.994V257.455C101.275 260.904 104.071 263.699 107.52 263.699H146.578C150.027 263.699 152.822 260.904 152.822 257.455V168.994C152.822 165.546 150.027 162.75 146.578 162.75Z" fill="white" stroke="#8F00FF" stroke-width="2.08143"/>
<path d="M101.275 173.938H152.822V248.687H101.275V173.938Z" fill="white" stroke="#8F00FF" stroke-width="2.08143"/>
<path d="M138.505 167.173H115.853C115.278 167.173 114.812 167.639 114.812 168.214C114.812 168.788 115.278 169.254 115.853 169.254H138.505C139.079 169.254 139.545 168.788 139.545 168.214C139.545 167.639 139.079 167.173 138.505 167.173Z" fill="#8F00FF"/>
<path d="M127.155 253.032H127.152C125.513 253.032 124.186 254.36 124.186 255.998C124.186 257.636 125.513 258.964 127.152 258.964H127.155C128.793 258.964 130.121 257.636 130.121 255.998C130.121 254.36 128.793 253.032 127.155 253.032Z" fill="#8F00FF"/>
<path d="M115.854 215.046C118.011 215.046 119.76 213.299 119.76 211.143C119.76 208.988 118.011 207.241 115.854 207.241C113.698 207.241 111.949 208.988 111.949 211.143C111.949 213.299 113.698 215.046 115.854 215.046Z" fill="white" stroke="#8F00FF" stroke-width="2.08143"/>
<path d="M142.149 204.378H126.007C125.432 204.378 124.966 204.844 124.966 205.419C124.966 205.994 125.432 206.46 126.007 206.46H142.149C142.724 206.46 143.19 205.994 143.19 205.419C143.19 204.844 142.724 204.378 142.149 204.378Z" fill="#8F00FF"/>
<path d="M136.942 210.103H126.007C125.432 210.103 124.966 210.568 124.966 211.143C124.966 211.718 125.432 212.184 126.007 212.184H136.942C137.517 212.184 137.983 211.718 137.983 211.143C137.983 210.568 137.517 210.103 136.942 210.103Z" fill="#8F00FF"/>
<path d="M131.735 215.826H126.007C125.432 215.826 124.966 216.292 124.966 216.867C124.966 217.442 125.432 217.908 126.007 217.908H131.735C132.31 217.908 132.776 217.442 132.776 216.867C132.776 216.292 132.31 215.826 131.735 215.826Z" fill="#8F00FF"/>
<path d="M74.8494 211.663C96.9208 211.663 114.813 193.783 114.813 171.726C114.813 149.669 96.9208 131.789 74.8494 131.789C52.7781 131.789 34.8857 149.669 34.8857 171.726C34.8857 193.783 52.7781 211.663 74.8494 211.663Z" fill="white" stroke="#8F00FF" stroke-width="2.08143"/>
<path d="M506.115 123.463H325.949C322.501 123.463 319.705 126.259 319.705 129.707V246.527C319.705 249.976 322.501 252.772 325.949 252.772H506.115C509.564 252.772 512.359 249.976 512.359 246.527V129.707C512.359 126.259 509.564 123.463 506.115 123.463Z" fill="white" stroke="#8F00FF" stroke-width="2.08143"/>
<path d="M306.427 253.026V258.236C306.427 261.249 308.875 263.699 311.889 263.699H520.177C523.188 263.699 525.639 261.25 525.639 258.236V253.026C525.639 252.884 525.526 252.772 525.38 252.772H306.686C306.539 252.772 306.427 252.884 306.427 253.026Z" fill="white" stroke="#8F00FF" stroke-width="2.08143"/>
<path d="M430.429 252.889L401.271 252.888C402.434 255.961 405.403 258.092 408.808 258.092H422.891C426.297 258.092 429.266 255.962 430.429 252.889Z" fill="white" stroke="#8F00FF" stroke-width="2.08143"/>
<path d="M501.533 135.691H330.376C329.227 135.691 328.295 136.623 328.295 137.773V238.683C328.295 239.833 329.227 240.764 330.376 240.764H501.533C502.683 240.764 503.615 239.833 503.615 238.683V137.773C503.615 136.623 502.683 135.691 501.533 135.691Z" fill="white" stroke="#8F00FF" stroke-width="2.08143"/>
<path d="M254.358 54.2556C255.077 54.2556 255.66 53.6732 255.66 52.9547C255.66 52.2362 255.077 51.6538 254.358 51.6538C253.639 51.6538 253.057 52.2362 253.057 52.9547C253.057 53.6732 253.639 54.2556 254.358 54.2556Z" fill="#0F172A"/>
<path d="M179.899 14.9683H300.178V130.228C300.178 134.249 296.909 137.512 292.886 137.512H187.191C183.166 137.512 179.899 134.248 179.899 130.228V14.9683Z" fill="white" stroke="#8F00FF" stroke-width="2.08143"/>
<path d="M179.899 9.23794C179.899 5.21981 183.169 1.95947 187.191 1.95947H292.886C296.913 1.95947 300.178 5.21632 300.178 9.23794V17.0498H179.899V9.23794Z" fill="white" stroke="#8F00FF" stroke-width="2.08143"/>
<path d="M191.094 11.8463C192.388 11.8463 193.437 10.7979 193.437 9.50469C193.437 8.21146 192.388 7.16309 191.094 7.16309C189.8 7.16309 188.751 8.21146 188.751 9.50469C188.751 10.7979 189.8 11.8463 191.094 11.8463Z" fill="#8F00FF"/>
<path d="M198.905 11.8463C200.199 11.8463 201.248 10.7979 201.248 9.50469C201.248 8.21146 200.199 7.16309 198.905 7.16309C197.611 7.16309 196.562 8.21146 196.562 9.50469C196.562 10.7979 197.611 11.8463 198.905 11.8463Z" fill="#8F00FF"/>
<path d="M206.714 11.8463C208.008 11.8463 209.057 10.7979 209.057 9.50469C209.057 8.21146 208.008 7.16309 206.714 7.16309C205.42 7.16309 204.371 8.21146 204.371 9.50469C204.371 10.7979 205.42 11.8463 206.714 11.8463Z" fill="#8F00FF"/>
<path d="M198.124 90.9404H195.519C194.944 90.9404 194.479 91.4064 194.479 91.9811C194.479 92.5559 194.944 93.0219 195.519 93.0219H198.124C198.699 93.0219 199.165 92.5559 199.165 91.9811C199.165 91.4064 198.699 90.9404 198.124 90.9404Z" fill="#8F00FF"/>
<path d="M198.124 38.9048H195.519C194.944 38.9048 194.479 39.3707 194.479 39.9455C194.479 40.5203 194.944 40.9862 195.519 40.9862H198.124C198.699 40.9862 199.165 40.5203 199.165 39.9455C199.165 39.3707 198.699 38.9048 198.124 38.9048Z" fill="#8F00FF"/>
<path d="M203.33 38.9048H210.36C210.935 38.9048 211.401 39.3707 211.401 39.9455C211.401 40.5203 210.935 40.9862 210.36 40.9862H203.33C202.755 40.9862 202.289 40.5203 202.289 39.9455C202.289 39.3707 202.755 38.9048 203.33 38.9048Z" fill="#8F00FF"/>
<path d="M215.045 38.9048H222.075C222.65 38.9048 223.116 39.3707 223.116 39.9455C223.116 40.5203 222.65 40.9862 222.075 40.9862H215.045C214.47 40.9862 214.004 40.5203 214.004 39.9455C214.004 39.3707 214.47 38.9048 215.045 38.9048Z" fill="#8F00FF"/>
<path d="M226.76 38.9048H239.779C240.354 38.9048 240.82 39.3707 240.82 39.9455C240.82 40.5203 240.354 40.9862 239.779 40.9862H226.76C226.186 40.9862 225.72 40.5203 225.72 39.9455C225.72 39.3707 226.186 38.9048 226.76 38.9048Z" fill="#8F00FF"/>
<path d="M244.465 38.9048H263.731C264.306 38.9048 264.772 39.3707 264.772 39.9455C264.772 40.5203 264.306 40.9862 263.731 40.9862H244.465C243.89 40.9862 243.424 40.5203 243.424 39.9455C243.424 39.3707 243.89 38.9048 244.465 38.9048Z" fill="#8F00FF"/>
<path d="M198.124 49.312H195.519C194.944 49.312 194.479 49.778 194.479 50.3527C194.479 50.9275 194.944 51.3934 195.519 51.3934H198.124C198.699 51.3934 199.165 50.9275 199.165 50.3527C199.165 49.778 198.699 49.312 198.124 49.312Z" fill="#8F00FF"/>
<path d="M198.124 59.7192H195.519C194.944 59.7192 194.479 60.1852 194.479 60.76C194.479 61.3347 194.944 61.8007 195.519 61.8007H198.124C198.699 61.8007 199.165 61.3347 199.165 60.76C199.165 60.1852 198.699 59.7192 198.124 59.7192Z" fill="#8F00FF"/>
<path d="M198.124 70.1265H195.519C194.944 70.1265 194.479 70.5924 194.479 71.1672C194.479 71.742 194.944 72.2079 195.519 72.2079H198.124C198.699 72.2079 199.165 71.742 199.165 71.1672C199.165 70.5924 198.699 70.1265 198.124 70.1265Z" fill="#8F00FF"/>
<path d="M198.124 80.5337H195.519C194.944 80.5337 194.479 80.9996 194.479 81.5744C194.479 82.1492 194.944 82.6151 195.519 82.6151H198.124C198.699 82.6151 199.165 82.1492 199.165 81.5744C199.165 80.9996 198.699 80.5337 198.124 80.5337Z" fill="#8F00FF"/>
<path d="M198.124 101.348H195.519C194.944 101.348 194.479 101.814 194.479 102.388C194.479 102.963 194.944 103.429 195.519 103.429H198.124C198.699 103.429 199.165 102.963 199.165 102.388C199.165 101.814 198.699 101.348 198.124 101.348Z" fill="#8F00FF"/>
<path d="M198.124 111.755H195.519C194.944 111.755 194.479 112.221 194.479 112.796C194.479 113.37 194.944 113.836 195.519 113.836H198.124C198.699 113.836 199.165 113.37 199.165 112.796C199.165 112.221 198.699 111.755 198.124 111.755Z" fill="#8F00FF"/>
<path d="M219.473 49.312H203.33C202.755 49.312 202.289 49.778 202.289 50.3527C202.289 50.9275 202.755 51.3934 203.33 51.3934H219.473C220.047 51.3934 220.513 50.9275 220.513 50.3527C220.513 49.778 220.047 49.312 219.473 49.312Z" fill="#8F00FF"/>
<path d="M253.317 49.312H224.157C223.582 49.312 223.116 49.778 223.116 50.3527C223.116 50.9275 223.582 51.3934 224.157 51.3934H253.317C253.892 51.3934 254.358 50.9275 254.358 50.3527C254.358 49.778 253.892 49.312 253.317 49.312Z" fill="#8F00FF"/>
<path d="M268.938 49.312H258.002C257.427 49.312 256.961 49.778 256.961 50.3527C256.961 50.9275 257.427 51.3934 258.002 51.3934H268.938C269.512 51.3934 269.978 50.9275 269.978 50.3527C269.978 49.778 269.512 49.312 268.938 49.312Z" fill="#8F00FF"/>
<path d="M214.266 59.7192H203.33C202.755 59.7192 202.289 60.1852 202.289 60.76C202.289 61.3347 202.755 61.8007 203.33 61.8007H214.266C214.84 61.8007 215.306 61.3347 215.306 60.76C215.306 60.1852 214.84 59.7192 214.266 59.7192Z" fill="#8F00FF"/>
<path d="M229.886 59.7192H218.95C218.375 59.7192 217.909 60.1852 217.909 60.76C217.909 61.3347 218.375 61.8007 218.95 61.8007H229.886C230.461 61.8007 230.926 61.3347 230.926 60.76C230.926 60.1852 230.461 59.7192 229.886 59.7192Z" fill="#8F00FF"/>
<path d="M240.3 59.7192H234.571C233.996 59.7192 233.53 60.1852 233.53 60.76C233.53 61.3347 233.996 61.8007 234.571 61.8007H240.3C240.875 61.8007 241.341 61.3347 241.341 60.76C241.341 60.1852 240.875 59.7192 240.3 59.7192Z" fill="#8F00FF"/>
<path d="M227.283 70.1265H203.33C202.755 70.1265 202.289 70.5924 202.289 71.1672C202.289 71.742 202.755 72.2079 203.33 72.2079H227.283C227.858 72.2079 228.324 71.742 228.324 71.1672C228.324 70.5924 227.858 70.1265 227.283 70.1265Z" fill="#8F00FF"/>
<path d="M248.11 70.1265H231.967C231.393 70.1265 230.927 70.5924 230.927 71.1672C230.927 71.742 231.393 72.2079 231.967 72.2079H248.11C248.685 72.2079 249.151 71.742 249.151 71.1672C249.151 70.5924 248.685 70.1265 248.11 70.1265Z" fill="#8F00FF"/>
<path d="M227.283 80.5337H203.33C202.755 80.5337 202.289 80.9996 202.289 81.5744C202.289 82.1492 202.755 82.6151 203.33 82.6151H227.283C227.858 82.6151 228.324 82.1492 228.324 81.5744C228.324 80.9996 227.858 80.5337 227.283 80.5337Z" fill="#8F00FF"/>
<path d="M263.731 80.5337H231.967C231.393 80.5337 230.927 80.9996 230.927 81.5744C230.927 82.1492 231.393 82.6151 231.967 82.6151H263.731C264.306 82.6151 264.772 82.1492 264.772 81.5744C264.772 80.9996 264.306 80.5337 263.731 80.5337Z" fill="#8F00FF"/>
<path d="M219.473 90.9404H203.33C202.755 90.9404 202.289 91.4064 202.289 91.9811C202.289 92.5559 202.755 93.0219 203.33 93.0219H219.473C220.047 93.0219 220.513 92.5559 220.513 91.9811C220.513 91.4064 220.047 90.9404 219.473 90.9404Z" fill="#8F00FF"/>
<path d="M240.3 90.9404H224.157C223.582 90.9404 223.116 91.4064 223.116 91.9811C223.116 92.5559 223.582 93.0219 224.157 93.0219H240.3C240.874 93.0219 241.34 92.5559 241.34 91.9811C241.34 91.4064 240.874 90.9404 240.3 90.9404Z" fill="#8F00FF"/>
<path d="M253.317 90.9404H244.985C244.41 90.9404 243.944 91.4064 243.944 91.9811C243.944 92.5559 244.41 93.0219 244.985 93.0219H253.317C253.892 93.0219 254.358 92.5559 254.358 91.9811C254.358 91.4064 253.892 90.9404 253.317 90.9404Z" fill="#8F00FF"/>
<path d="M235.093 101.348H203.33C202.755 101.348 202.289 101.814 202.289 102.388C202.289 102.963 202.755 103.429 203.33 103.429H235.093C235.668 103.429 236.134 102.963 236.134 102.388C236.134 101.814 235.668 101.348 235.093 101.348Z" fill="#8F00FF"/>
<path d="M216.869 111.755H203.33C202.755 111.755 202.289 112.221 202.289 112.796C202.289 113.37 202.755 113.836 203.33 113.836H216.869C217.444 113.836 217.91 113.37 217.91 112.796C217.91 112.221 217.444 111.755 216.869 111.755Z" fill="#8F00FF"/>
<path d="M414.992 96.6646H557.66V198.143C557.66 202.163 554.4 205.419 550.374 205.419H422.278C418.257 205.419 414.992 202.157 414.992 198.143V96.6646Z" fill="white" stroke="#8F00FF" stroke-width="2.08143"/>
<path d="M414.992 90.9342C414.992 86.913 418.252 83.6558 422.278 83.6558H550.374C554.399 83.6558 557.66 86.9128 557.66 90.9342V98.7461H414.992V90.9342Z" fill="white" stroke="#8F00FF" stroke-width="2.08143"/>
<path d="M426.186 93.5426C427.48 93.5426 428.529 92.4942 428.529 91.201C428.529 89.9077 427.48 88.8594 426.186 88.8594C424.892 88.8594 423.843 89.9077 423.843 91.201C423.843 92.4942 424.892 93.5426 426.186 93.5426Z" fill="#8F00FF"/>
<path d="M433.996 93.5426C435.29 93.5426 436.34 92.4942 436.34 91.201C436.34 89.9077 435.29 88.8594 433.996 88.8594C432.702 88.8594 431.653 89.9077 431.653 91.201C431.653 92.4942 432.702 93.5426 433.996 93.5426Z" fill="#8F00FF"/>
<path d="M441.807 93.5426C443.101 93.5426 444.15 92.4942 444.15 91.201C444.15 89.9077 443.101 88.8594 441.807 88.8594C440.513 88.8594 439.464 89.9077 439.464 91.201C439.464 92.4942 440.513 93.5426 441.807 93.5426Z" fill="#8F00FF"/>
<path d="M503.248 177.06C517.627 177.06 529.283 165.411 529.283 151.042C529.283 136.673 517.627 125.024 503.248 125.024C488.87 125.024 477.214 136.673 477.214 151.042C477.214 165.411 488.87 177.06 503.248 177.06Z" fill="white" stroke="#8F00FF" stroke-width="2.34161"/>
<path d="M500.384 121.902V128.146H506.633V121.902H500.384Z" fill="white" stroke="#8F00FF" stroke-width="2.08143"/>
<path d="M500.123 173.938V180.182H506.373V173.938H500.123Z" fill="white" stroke="#8F00FF" stroke-width="2.08143"/>
<path d="M474.089 148.18V154.424H480.338V148.18H474.089Z" fill="white" stroke="#8F00FF" stroke-width="2.08143"/>
<path d="M525.897 148.18V154.424H532.147V148.18H525.897Z" fill="white" stroke="#8F00FF" stroke-width="2.08143"/>
<path d="M529.283 127.626V147.139" stroke="#8F00FF" stroke-width="2.08143" stroke-linecap="square"/>
<path d="M529.283 154.944V174.458" stroke="#8F00FF" stroke-width="2.08143" stroke-linecap="square"/>
<path d="M529.282 129.967C531.008 129.967 532.406 128.57 532.406 126.845C532.406 125.121 531.008 123.723 529.282 123.723C527.557 123.723 526.158 125.121 526.158 126.845C526.158 128.57 527.557 129.967 529.282 129.967Z" fill="#8F00FF"/>
<path d="M529.282 179.402C531.008 179.402 532.406 178.004 532.406 176.279C532.406 174.555 531.008 173.157 529.282 173.157C527.557 173.157 526.158 174.555 526.158 176.279C526.158 178.004 527.557 179.402 529.282 179.402Z" fill="#8F00FF"/>
<path d="M453.525 119.56H443.626C441.902 119.56 440.504 120.958 440.504 122.682V132.569C440.504 134.293 441.902 135.691 443.626 135.691H453.525C455.249 135.691 456.647 134.293 456.647 132.569V122.682C456.647 120.958 455.249 119.56 453.525 119.56Z" fill="white" stroke="#8F00FF" stroke-width="2.08143"/>
<path d="M453.525 142.976H443.626C441.902 142.976 440.504 144.374 440.504 146.098V155.985C440.504 157.709 441.902 159.107 443.626 159.107H453.525C455.249 159.107 456.647 157.709 456.647 155.985V146.098C456.647 144.374 455.249 142.976 453.525 142.976Z" fill="white" stroke="#8F00FF" stroke-width="2.08143"/>
<path d="M453.525 166.392H443.626C441.902 166.392 440.504 167.79 440.504 169.514V179.401C440.504 181.125 441.902 182.523 443.626 182.523H453.525C455.249 182.523 456.647 181.125 456.647 179.401V169.514C456.647 167.79 455.249 166.392 453.525 166.392Z" fill="white" stroke="#8F00FF" stroke-width="2.08143"/>
<path d="M632.38 254.593C641.007 254.593 648 247.604 648 238.982C648 230.361 641.007 223.372 632.38 223.372C623.752 223.372 616.759 230.361 616.759 238.982C616.759 247.604 623.752 254.593 632.38 254.593Z" fill="white" stroke="#8F00FF" stroke-width="2.08143"/>
<path d="M632.38 248.088C637.412 248.088 641.492 244.011 641.492 238.982C641.492 233.953 637.412 229.876 632.38 229.876C627.347 229.876 623.268 233.953 623.268 238.982C623.268 244.011 627.347 248.088 632.38 248.088Z" fill="white" stroke="#8F00FF" stroke-width="2.08143"/>
<path d="M611.552 220.51C614.427 220.51 616.759 218.18 616.759 215.306C616.759 212.432 614.427 210.103 611.552 210.103C608.676 210.103 606.345 212.432 606.345 215.306C606.345 218.18 608.676 220.51 611.552 220.51Z" fill="white" stroke="#8F00FF" stroke-width="2.08143"/>
<path d="M588.64 214.005C588.066 214.005 587.6 214.471 587.6 215.046V258.756C587.6 261.63 589.929 263.96 592.803 263.96H628.721C631.594 263.96 633.924 261.63 633.924 258.756V215.046C633.924 214.471 633.458 214.005 632.883 214.005H588.64Z" fill="white" stroke="#8F00FF" stroke-width="2.08143"/>
<path d="M620.146 228.055H612.851C611.126 228.055 609.729 229.453 609.729 231.177V241.584C609.729 243.308 611.126 244.706 612.851 244.706H620.146C621.87 244.706 623.268 243.308 623.268 241.584V231.177C623.268 229.453 621.87 228.055 620.146 228.055Z" fill="white" stroke="#8F00FF" stroke-width="2.08143"/>
<path d="M616.368 214.396V226.234" stroke="#8F00FF" stroke-width="2.08143" stroke-linecap="square"/>
<path d="M557.921 263.699C566.548 263.699 573.541 263.699 573.541 263.699C573.541 255.078 566.548 248.088 557.921 248.088C549.293 248.088 542.3 255.078 542.3 263.699C542.3 263.699 549.293 263.699 557.921 263.699Z" fill="white" stroke="#8F00FF" stroke-width="2.08143"/>
<path d="M558.962 248.61C558.962 248.035 558.495 247.568 557.92 247.568C557.345 247.568 556.879 248.035 556.879 248.61V249.909C556.879 250.484 557.345 250.951 557.92 250.951C558.495 250.951 558.962 250.484 558.962 249.909V248.61Z" fill="#8F00FF"/>
<path d="M16.3917 232.998C7.91375 232.998 1.04102 239.871 1.04102 248.349C1.04102 256.827 7.91375 263.699 16.3917 263.699H79.4074C80.2695 263.699 80.9684 263 80.9684 262.138V259.722C80.9684 258.63 80.124 257.724 79.0345 257.646C71.8807 257.138 68.0808 253.995 68.0808 248.349C68.0808 242.702 71.8807 239.559 79.0345 239.051C80.124 238.974 80.9684 238.067 80.9684 236.975V234.559C80.9684 233.697 80.2695 232.998 79.4074 232.998H16.3917Z" fill="white" stroke="#8F00FF" stroke-width="2.08143"/>
<path d="M80.1864 258.3C80.1864 258.552 79.9821 258.756 79.7301 258.756H72.3534H16.1414C10.39 258.756 5.72754 254.096 5.72754 248.349C5.72754 242.601 10.39 237.941 16.1414 237.941H72.3534H79.7301C79.9821 237.941 80.1864 238.146 80.1864 238.397" stroke="#8F00FF" stroke-width="2.08143"/>
<path d="M67.6904 243.926H15.0993C14.5245 243.926 14.0586 244.392 14.0586 244.967C14.0586 245.541 14.5245 246.007 15.0993 246.007H67.6904C68.2652 246.007 68.7312 245.541 68.7312 244.967C68.7312 244.392 68.2652 243.926 67.6904 243.926Z" fill="#8F00FF"/>
<path d="M67.6904 250.43H15.0993C14.5245 250.43 14.0586 250.896 14.0586 251.471C14.0586 252.046 14.5245 252.512 15.0993 252.512H67.6904C68.2652 252.512 68.7312 252.046 68.7312 251.471C68.7312 250.896 68.2652 250.43 67.6904 250.43Z" fill="#8F00FF"/>
<path d="M65.1264 181.056C63.8487 179.92 62.571 178.785 61.2934 177.65C59.2573 175.843 57.227 174.03 55.1909 172.223C54.7242 171.812 54.2575 171.395 53.7966 170.984C53.7966 171.528 53.7966 172.078 53.7966 172.623C55.0742 171.488 56.3519 170.353 57.6296 169.217C59.6657 167.41 61.6959 165.598 63.732 163.791C64.1988 163.379 64.6655 162.962 65.1264 162.551C65.5814 162.146 65.5756 161.318 65.1264 160.912C64.6422 160.466 63.9654 160.478 63.4753 160.912C62.1977 162.047 60.92 163.182 59.6423 164.318C57.6062 166.125 55.576 167.937 53.5399 169.744C53.0731 170.156 52.6064 170.573 52.1455 170.984C51.6963 171.383 51.6963 172.223 52.1455 172.623C53.4232 173.758 54.7008 174.893 55.9785 176.028C58.0146 177.835 60.0449 179.648 62.081 181.455C62.5477 181.866 63.0144 182.283 63.4753 182.695C63.9304 183.1 64.683 183.175 65.1264 182.695C65.5348 182.254 65.6106 181.49 65.1264 181.056Z" fill="#8F00FF"/>
<path d="M84.5833 162.554C85.8609 163.689 87.1386 164.824 88.4163 165.959C90.4524 167.766 92.4826 169.579 94.5187 171.386C94.9854 171.797 95.4522 172.214 95.9131 172.626C95.9131 172.081 95.9131 171.531 95.9131 170.987C94.6354 172.122 93.3577 173.257 92.0801 174.392C90.044 176.199 88.0137 178.012 85.9776 179.819C85.5109 180.23 85.0441 180.647 84.5833 181.058C84.1282 181.464 84.134 182.292 84.5833 182.697C85.0675 183.143 85.7442 183.132 86.2343 182.697C87.512 181.562 88.7896 180.427 90.0673 179.292C92.1034 177.485 94.1337 175.672 96.1698 173.865C96.6365 173.454 97.1032 173.037 97.5641 172.626C98.0133 172.226 98.0133 171.386 97.5641 170.987C96.2864 169.851 95.0088 168.716 93.7311 167.581C91.695 165.774 89.6647 163.961 87.6286 162.154C87.1619 161.743 86.6952 161.326 86.2343 160.915C85.7792 160.51 85.0266 160.434 84.5833 160.915C84.1749 161.355 84.099 162.12 84.5833 162.554Z" fill="#8F00FF"/>
<path d="M70.6942 187.876C71.0442 186.833 71.3884 185.791 71.7385 184.743C72.5728 182.235 73.407 179.733 74.2413 177.225C75.2448 174.202 76.2482 171.184 77.2575 168.161C78.1268 165.549 78.9961 162.937 79.8654 160.325C80.2796 159.057 80.7463 157.794 81.1314 156.508C81.1372 156.491 81.143 156.474 81.1489 156.456C81.3414 155.883 80.9272 155.165 80.3321 155.031C79.6903 154.887 79.1011 155.223 78.8969 155.842C78.5469 156.885 78.2026 157.927 77.8526 158.976C77.0183 161.483 76.1841 163.985 75.3498 166.493C74.3463 169.516 73.3429 172.534 72.3336 175.557C71.4643 178.169 70.595 180.781 69.7257 183.393C69.3115 184.656 68.8448 185.918 68.4597 187.204C68.4539 187.221 68.448 187.239 68.4422 187.256C68.2497 187.83 68.6639 188.548 69.259 188.681C69.9007 188.826 70.49 188.49 70.6942 187.876Z" fill="#8F00FF"/>
</g>
<defs>
<clipPath id="clip0_216_101">
<rect width="650" height="265" fill="white"/>
</clipPath>
</defs>
</svg>
