<svg width="4000" height="1606" viewBox="0 0 4000 1606" fill="none" xmlns="http://www.w3.org/2000/svg">
<g id="Logo Landscape Copy" clip-path="url(#clip0_0_15)">
<g id="Logomark Light">
<path id="Helmet" fill-rule="evenodd" clip-rule="evenodd" d="M648.311 458.689L616.926 691.158L671.324 462.997C956.57 533.778 980.242 814.985 925.266 1003.66C881.305 1155.11 900.189 1239.16 915.414 1275.84L627.627 1491.31C627.342 1491.58 627.071 1491.58 626.785 1491.31C626.222 1491.02 626.222 1490.75 626.222 1490.46V1132.56C626.222 1047.23 702.855 983.409 770.968 926.687C781.666 917.778 792.154 909.044 802.101 900.429C804.641 898.174 806.889 895.632 806.889 891.97V820.054C806.889 816.949 805.483 814.408 802.943 812.424C800.696 810.46 797.307 809.346 794.496 810.752C775.979 820.157 757.882 828.508 740.472 836.542C653.983 876.454 584.445 908.544 564.497 1023.12C551.249 1098.99 585.649 1144.12 585.649 1144.12L543.65 1216.88L501.359 1144.12C501.359 1144.12 535.739 1098.99 522.783 1023.12C502.613 908.57 433.05 876.469 346.59 836.569C329.162 828.527 311.047 820.168 292.512 810.752C289.68 809.346 286.584 810.46 284.044 812.424C281.505 814.408 280.099 816.949 280.099 820.054V891.97C280.099 895.632 282.347 898.174 285.178 900.429C295.223 909.163 305.829 918.019 316.651 927.056C384.469 983.686 460.786 1047.41 460.786 1132.56V1490.46C460.786 1490.75 460.786 1491.02 460.494 1491.31C460.219 1491.44 460.08 1491.51 459.94 1491.51C459.797 1491.51 459.652 1491.45 459.36 1491.31L171.594 1275.84C186.798 1239.16 205.703 1155.11 161.721 1003.66C106.766 814.985 130.438 533.778 415.684 462.997L470.082 690.872L438.615 458.689C472.473 451.969 507.009 447.287 543.467 448.374C579.918 447.287 614.454 451.969 648.311 458.689Z" fill="#F2F2FC"/>
<path id="Cap" fill-rule="evenodd" clip-rule="evenodd" d="M696.588 138.285C683.798 134.096 671.731 130.346 660.22 127.022L608.289 332.677L645.595 122.958C630.485 118.925 616.299 115.701 602.682 113.282L574.091 284.881L590.428 111.302C577.78 109.472 565.532 108.372 553.362 108L544.066 368.839L534.764 108C522.607 108.372 510.352 109.471 497.704 111.302L514.034 284.881L485.45 113.282C471.826 115.7 457.647 118.925 442.531 122.958L479.843 332.677L427.912 127.022C416.401 130.346 404.328 134.096 391.544 138.285L454.753 438.594C508.383 429.379 586.184 429.379 639.814 438.594" fill="#F2F2FC"/>
</g>
<g id="Wordmark Light">
<g id="Shape" filter="url(#filter0_d_0_15)">
<path fill-rule="evenodd" clip-rule="evenodd" d="M1517.48 365.917L1915.32 1235.18H1740.84L1688.7 1099.83H1375.81L1323.67 1235.18L1080 1397.99L1517.48 365.917ZM1437.95 942.305H1627.67L1532.25 698.247L1437.95 942.305Z" fill="#F2F2FC"/>
</g>
<g id="u" filter="url(#filter1_d_0_15)">
<path d="M2272.87 646.582V1242.89H2082.81V1185.87C2037.68 1233.39 1974.72 1260.71 1899.88 1260.71C1760.9 1260.71 1668.25 1162.12 1668.25 1012.44V646.582H1857.12V972.057C1857.12 1042.14 1898.7 1089.66 1959.28 1089.66C2034.11 1089.66 2082.81 1038.58 2082.81 923.355V646.582H2272.87Z" fill="#F2F2FC"/>
</g>
<g id="i" filter="url(#filter2_d_0_15)">
<path d="M2753.01 362.682C2817.15 362.682 2863.48 412.572 2863.48 470.778C2863.48 531.359 2817.15 576.498 2753.01 576.498C2688.86 576.498 2643.73 531.359 2643.73 470.778C2643.73 412.572 2688.86 362.682 2753.01 362.682ZM2848.04 1242.89H2657.98V646.582H2848.04V1242.89Z" fill="#F2F2FC"/>
</g>
<g id="i copy" filter="url(#filter3_d_0_15)">
<path d="M3185 362.682C3249.14 362.682 3295.47 412.572 3295.47 470.778C3295.47 531.359 3249.14 576.498 3185 576.498C3120.85 576.498 3075.71 531.359 3075.71 470.778C3075.71 412.572 3120.85 362.682 3185 362.682ZM3280.03 1242.89H3089.97V646.582H3280.03V1242.89Z" fill="#F2F2FC"/>
</g>
<g id="x" filter="url(#filter4_d_0_15)">
<path d="M2591.55 954.239L2788.74 1242.89H2570.17L2456.14 1070.65L2340.91 1242.89H2123.53L2319.53 954.239L2123.53 645.394H2340.91L2456.14 830.701L2570.17 645.394H2788.74L2591.55 954.239Z" fill="#F2F2FC"/>
</g>
<g id="a" filter="url(#filter5_d_0_15)">
<path d="M3819.65 646.582V1242.89H3629.59V1195.38C3583.27 1236.95 3521.5 1260.71 3444.29 1260.71C3286.3 1260.71 3153.26 1133.61 3153.26 944.736C3153.26 757.054 3286.3 628.764 3444.29 628.764C3521.5 628.764 3583.27 652.521 3629.59 694.097V646.582H3819.65ZM3483.48 1099.16C3560.7 1099.16 3629.59 1037.39 3629.59 944.736C3629.59 853.271 3560.7 790.314 3483.48 790.314C3400.33 790.314 3339.75 853.271 3339.75 944.736C3339.75 1037.39 3400.33 1099.16 3483.48 1099.16Z" fill="#F2F2FC"/>
</g>
<g id="Path" filter="url(#filter6_d_0_15)">
<path d="M3109.12 1236.41V302.922L2931.6 437.67L2931.6 1410.31L3109.12 1236.41Z" fill="#F2F2FC"/>
</g>
</g>
</g>
<defs>
<filter id="filter0_d_0_15" x="1075" y="362.917" width="845.325" height="1042.07" filterUnits="userSpaceOnUse" color-interpolation-filters="sRGB">
<feFlood flood-opacity="0" result="BackgroundImageFix"/>
<feColorMatrix in="SourceAlpha" type="matrix" values="0 0 0 0 0 0 0 0 0 0 0 0 0 0 0 0 0 0 127 0" result="hardAlpha"/>
<feOffset dy="2"/>
<feGaussianBlur stdDeviation="2.5"/>
<feColorMatrix type="matrix" values="0 0 0 0 0 0 0 0 0 0 0 0 0 0 0 0 0 0 0.5 0"/>
<feBlend mode="normal" in2="BackgroundImageFix" result="effect1_dropShadow_0_15"/>
<feBlend mode="normal" in="SourceGraphic" in2="effect1_dropShadow_0_15" result="shape"/>
</filter>
<filter id="filter1_d_0_15" x="1663.25" y="643.582" width="614.624" height="624.126" filterUnits="userSpaceOnUse" color-interpolation-filters="sRGB">
<feFlood flood-opacity="0" result="BackgroundImageFix"/>
<feColorMatrix in="SourceAlpha" type="matrix" values="0 0 0 0 0 0 0 0 0 0 0 0 0 0 0 0 0 0 127 0" result="hardAlpha"/>
<feOffset dy="2"/>
<feGaussianBlur stdDeviation="2.5"/>
<feColorMatrix type="matrix" values="0 0 0 0 0 0 0 0 0 0 0 0 0 0 0 0 0 0 0.5 0"/>
<feBlend mode="normal" in2="BackgroundImageFix" result="effect1_dropShadow_0_15"/>
<feBlend mode="normal" in="SourceGraphic" in2="effect1_dropShadow_0_15" result="shape"/>
</filter>
<filter id="filter2_d_0_15" x="2638.73" y="359.682" width="229.755" height="890.208" filterUnits="userSpaceOnUse" color-interpolation-filters="sRGB">
<feFlood flood-opacity="0" result="BackgroundImageFix"/>
<feColorMatrix in="SourceAlpha" type="matrix" values="0 0 0 0 0 0 0 0 0 0 0 0 0 0 0 0 0 0 127 0" result="hardAlpha"/>
<feOffset dy="2"/>
<feGaussianBlur stdDeviation="2.5"/>
<feColorMatrix type="matrix" values="0 0 0 0 0 0 0 0 0 0 0 0 0 0 0 0 0 0 0.5 0"/>
<feBlend mode="normal" in2="BackgroundImageFix" result="effect1_dropShadow_0_15"/>
<feBlend mode="normal" in="SourceGraphic" in2="effect1_dropShadow_0_15" result="shape"/>
</filter>
<filter id="filter3_d_0_15" x="3070.71" y="359.682" width="229.755" height="890.208" filterUnits="userSpaceOnUse" color-interpolation-filters="sRGB">
<feFlood flood-opacity="0" result="BackgroundImageFix"/>
<feColorMatrix in="SourceAlpha" type="matrix" values="0 0 0 0 0 0 0 0 0 0 0 0 0 0 0 0 0 0 127 0" result="hardAlpha"/>
<feOffset dy="2"/>
<feGaussianBlur stdDeviation="2.5"/>
<feColorMatrix type="matrix" values="0 0 0 0 0 0 0 0 0 0 0 0 0 0 0 0 0 0 0.5 0"/>
<feBlend mode="normal" in2="BackgroundImageFix" result="effect1_dropShadow_0_15"/>
<feBlend mode="normal" in="SourceGraphic" in2="effect1_dropShadow_0_15" result="shape"/>
</filter>
<filter id="filter4_d_0_15" x="2118.53" y="642.394" width="675.205" height="607.497" filterUnits="userSpaceOnUse" color-interpolation-filters="sRGB">
<feFlood flood-opacity="0" result="BackgroundImageFix"/>
<feColorMatrix in="SourceAlpha" type="matrix" values="0 0 0 0 0 0 0 0 0 0 0 0 0 0 0 0 0 0 127 0" result="hardAlpha"/>
<feOffset dy="2"/>
<feGaussianBlur stdDeviation="2.5"/>
<feColorMatrix type="matrix" values="0 0 0 0 0 0 0 0 0 0 0 0 0 0 0 0 0 0 0.5 0"/>
<feBlend mode="normal" in2="BackgroundImageFix" result="effect1_dropShadow_0_15"/>
<feBlend mode="normal" in="SourceGraphic" in2="effect1_dropShadow_0_15" result="shape"/>
</filter>
<filter id="filter5_d_0_15" x="3148.26" y="625.764" width="676.393" height="641.944" filterUnits="userSpaceOnUse" color-interpolation-filters="sRGB">
<feFlood flood-opacity="0" result="BackgroundImageFix"/>
<feColorMatrix in="SourceAlpha" type="matrix" values="0 0 0 0 0 0 0 0 0 0 0 0 0 0 0 0 0 0 127 0" result="hardAlpha"/>
<feOffset dy="2"/>
<feGaussianBlur stdDeviation="2.5"/>
<feColorMatrix type="matrix" values="0 0 0 0 0 0 0 0 0 0 0 0 0 0 0 0 0 0 0.5 0"/>
<feBlend mode="normal" in2="BackgroundImageFix" result="effect1_dropShadow_0_15"/>
<feBlend mode="normal" in="SourceGraphic" in2="effect1_dropShadow_0_15" result="shape"/>
</filter>
<filter id="filter6_d_0_15" x="2926.6" y="299.922" width="187.521" height="1117.39" filterUnits="userSpaceOnUse" color-interpolation-filters="sRGB">
<feFlood flood-opacity="0" result="BackgroundImageFix"/>
<feColorMatrix in="SourceAlpha" type="matrix" values="0 0 0 0 0 0 0 0 0 0 0 0 0 0 0 0 0 0 127 0" result="hardAlpha"/>
<feOffset dy="2"/>
<feGaussianBlur stdDeviation="2.5"/>
<feColorMatrix type="matrix" values="0 0 0 0 0 0 0 0 0 0 0 0 0 0 0 0 0 0 0.5 0"/>
<feBlend mode="normal" in2="BackgroundImageFix" result="effect1_dropShadow_0_15"/>
<feBlend mode="normal" in="SourceGraphic" in2="effect1_dropShadow_0_15" result="shape"/>
</filter>
<clipPath id="clip0_0_15">
<rect width="4000" height="1606" fill="white"/>
</clipPath>
</defs>
</svg>
