<?xml version="1.0" encoding="UTF-8"?>
<svg width="1146px" height="1955px" viewBox="0 0 1146 1955" version="1.1" xmlns="http://www.w3.org/2000/svg" xmlns:xlink="http://www.w3.org/1999/xlink">
    <title>Logomark</title>
    <g id="Workmark" stroke="none" stroke-width="1" fill="none" fill-rule="evenodd">
        <g id="Logomark" transform="translate(-1427.000000, -1023.000000)">
            <g transform="translate(1427.000000, 1023.000000)">
                <path d="M572.9529,480.972579 C624.460914,479.436344 673.26303,486.051757 721.105608,495.547612 L721.105608,495.547612 L676.75575,824.042737 L753.62436,501.634945 C1156.6976,601.653467 1190.1471,999.019944 1112.46289,1265.63359 C1050.34238,1479.64077 1077.02714,1598.41097 1098.53999,1650.23971 L691.878073,1954.71196 C691.475067,1955.09601 691.091251,1955.09601 690.688245,1954.71196 C689.891829,1954.29909 689.891829,1953.92464 689.891829,1953.51177 L689.891829,1447.77349 C689.891829,1308.25452 834.868465,1209.43618 938.421835,1119.75844 C942.010508,1116.57075 945.18658,1112.9798 945.18658,1107.80461 L945.18658,1006.18264 C945.18658,1001.79477 943.200335,998.203819 939.611662,995.400189 C936.435591,992.625364 931.647495,991.050723 927.675006,993.038227 C771.519749,1072.34638 636.531906,1098.6352 602.6698,1293.1226 C583.949209,1400.33262 632.559417,1464.10559 632.559417,1464.10559 L573.211975,1566.92775 L513.451932,1464.10559 C513.451932,1464.10559 562.033355,1400.33262 543.725364,1293.1226 C509.479444,1098.6352 374.462814,1072.34638 218.336343,993.038227 C214.335069,991.050723 209.959574,992.625364 206.370901,995.400189 C202.782228,998.203819 200.795984,1001.79477 200.795984,1006.18264 L200.795984,1107.80461 C200.795984,1112.9798 203.972055,1116.57075 207.97333,1119.75844 C311.114098,1209.43618 456.119521,1308.25452 456.119521,1447.77349 L456.119521,1953.51177 C456.119521,1953.92464 456.119521,1954.29909 455.706919,1954.71196 C454.920098,1955.09601 454.920098,1955.09601 454.10449,1954.71196 L47.4713642,1650.23971 C68.955426,1598.41097 95.6689713,1479.64077 33.5196778,1265.63359 C-44.135754,999.019944 -10.6862501,601.653467 392.386989,501.634945 L469.2556,823.639476 L424.790596,495.547612 C472.633174,486.051757 521.435291,479.436344 572.9529,480.972579 Z" id="Helmet" fill="#0F172A"></path>
                <path d="M789.324494,42.7952573 C771.250755,36.8757546 754.199369,31.5767641 737.933004,26.8800352 L664.551798,317.484087 L717.26687,21.1366486 C695.916125,15.4379752 675.870705,10.8817741 656.628563,7.46348265 L616.227367,249.944998 L639.312461,4.66570324 C621.439541,2.08054046 604.132567,0.525610222 586.93513,0 L573.799721,368.583256 L560.655183,0 C543.476003,0.525610222 526.159901,2.07871543 508.286981,4.66570324 L531.362947,249.944998 L490.970879,7.46348265 C471.719608,10.8799491 451.683317,15.4379752 430.323443,21.1366486 L483.047644,317.484087 L409.666438,26.8800352 C393.400073,31.5767641 376.339558,36.8757546 358.274948,42.7952573 L447.5946,467.152209 C523.37651,454.130581 633.315786,454.130581 709.097695,467.152209" id="Cap" fill="#4F46E5"></path>
            </g>
        </g>
    </g>
</svg>