<svg width="1650" height="2815" viewBox="0 0 1650 2815" fill="none" xmlns="http://www.w3.org/2000/svg">
<path fill-rule="evenodd" clip-rule="evenodd" d="M1038.24 713.485L974.387 1186.45L1085.06 722.249C1665.4 866.255 1713.56 1438.38 1601.71 1822.25C1512.27 2130.37 1550.69 2301.38 1581.67 2376L996.16 2814.38C995.579 2814.93 995.027 2814.93 994.446 2814.38C993.3 2813.78 993.3 2813.24 993.3 2812.65V2084.49C993.3 1910.88 1149.21 1781.04 1287.79 1665.64C1309.55 1647.51 1330.89 1629.74 1351.13 1612.22C1356.3 1607.63 1360.87 1602.46 1360.87 1595.01V1448.69C1360.87 1442.37 1358.01 1437.2 1352.84 1433.17C1348.27 1429.17 1341.38 1426.91 1335.66 1429.77C1297.98 1448.9 1261.17 1465.89 1225.75 1482.24C1049.78 1563.44 908.303 1628.73 867.718 1861.83C840.765 2016.19 910.753 2108.01 910.753 2108.01L825.305 2256.05L739.263 2108.01C739.263 2108.01 809.21 2016.19 782.851 1861.83C741.815 1628.78 600.287 1563.47 424.381 1482.29C388.923 1465.93 352.069 1448.92 314.359 1429.77C308.598 1426.91 302.298 1429.17 297.131 1433.17C291.964 1437.2 289.104 1442.37 289.104 1448.69V1595.01C289.104 1602.46 293.677 1607.63 299.438 1612.22C319.875 1629.99 341.453 1648 363.471 1666.39C501.448 1781.6 656.717 1911.26 656.717 2084.49V2812.65C656.717 2813.24 656.717 2813.78 656.122 2814.38C655.563 2814.65 655.28 2814.79 654.995 2814.79C654.703 2814.79 654.41 2814.66 653.815 2814.38L68.3488 2376C99.2814 2301.38 137.743 2130.37 48.2613 1822.25C-63.5462 1438.38 -15.386 866.255 564.955 722.249L675.63 1185.87L611.609 713.485C680.493 699.813 750.758 690.288 824.932 692.5C899.093 690.288 969.358 699.813 1038.24 713.485Z" fill="#0F172A"/>
<path fill-rule="evenodd" clip-rule="evenodd" d="M1136.46 61.6162C1110.44 53.0934 1085.89 45.4639 1062.47 38.7016L956.815 457.111L1032.71 30.4323C1001.97 22.2275 973.112 15.6675 945.408 10.7459L887.238 359.868L920.476 6.71764C894.743 2.99554 869.824 0.756769 845.064 0L826.151 530.683L807.226 0C782.492 0.756769 757.56 2.99292 731.827 6.71764L765.051 359.868L706.895 10.7459C679.177 15.6648 650.329 22.2275 619.576 30.4323L695.487 457.111L589.834 38.7016C566.414 45.4639 541.85 53.0934 515.841 61.6162L644.442 672.601C753.552 653.853 911.842 653.853 1020.95 672.601" fill="#8F00FF"/>
</svg>
