<?xml version="1.0" standalone="no"?>
<!DOCTYPE svg PUBLIC "-//W3C//DTD SVG 20010904//EN"
 "http://www.w3.org/TR/2001/REC-SVG-20010904/DTD/svg10.dtd">
<svg version="1.0" xmlns="http://www.w3.org/2000/svg"
 width="700.000000pt" height="700.000000pt" viewBox="0 0 700.000000 700.000000"
 preserveAspectRatio="xMidYMid meet">
<metadata>
Created by potrace 1.14, written by Peter Selinger 2001-2017
</metadata>
<g transform="translate(0.000000,700.000000) scale(0.100000,-0.100000)"
fill="#000000" stroke="none">
<path d="M0 3500 l0 -3500 3500 0 3500 0 0 3500 0 3500 -3500 0 -3500 0 0
-3500z m3470 2408 c0 -94 29 -821 33 -824 2 -2 9 175 16 394 6 218 14 417 17
441 l6 44 55 -6 c30 -3 58 -8 61 -12 3 -3 -5 -120 -18 -260 -12 -141 -21 -257
-19 -260 3 -2 24 111 47 252 23 142 44 259 47 261 5 6 145 -28 145 -35 0 -3
-27 -158 -61 -345 -33 -187 -59 -342 -57 -344 2 -1 41 149 87 334 46 185 85
338 86 340 6 7 125 -33 125 -42 0 -6 -44 -245 -99 -531 l-98 -520 -74 5 c-114
8 -436 6 -514 -3 l-70 -8 -109 518 c-60 285 -109 524 -110 532 -1 13 110 59
119 50 2 -2 42 -152 88 -334 47 -181 86 -325 86 -319 1 10 -104 611 -114 651
-5 19 2 23 66 38 39 9 74 13 77 10 3 -3 27 -130 53 -283 26 -152 47 -268 48
-257 0 11 -10 135 -24 275 -14 140 -25 260 -25 267 0 12 29 19 93 22 l37 1 0
-52z m267 -1173 c65 -9 121 -19 126 -24 4 -4 -15 -175 -43 -381 -28 -205 -49
-377 -47 -383 1 -5 43 160 92 367 75 316 92 376 106 376 32 0 202 -62 284
-102 330 -165 539 -430 635 -803 40 -156 54 -306 47 -499 -7 -194 -23 -292
-87 -541 -70 -274 -85 -377 -84 -580 1 -149 4 -182 27 -265 14 -52 22 -98 18
-101 -3 -4 -232 -176 -508 -383 l-503 -376 0 680 0 679 25 78 c49 156 196 330
465 553 69 57 131 110 138 118 8 11 12 57 12 148 0 145 -3 164 -30 164 -30 0
-416 -186 -503 -243 -181 -118 -275 -253 -323 -462 -22 -94 -24 -237 -5 -315
7 -30 26 -80 41 -111 l27 -57 -68 -118 c-38 -66 -73 -119 -79 -119 -5 0 -41
53 -78 119 l-69 119 29 59 c46 90 65 217 50 331 -31 251 -137 422 -339 554
-90 59 -471 243 -503 243 -10 0 -21 -7 -24 -16 -9 -22 -7 -277 2 -289 4 -6 65
-60 137 -120 306 -258 421 -397 474 -569 20 -66 21 -85 21 -747 l0 -679 -507
381 c-344 257 -507 386 -506 397 1 10 12 53 24 97 18 66 22 109 22 250 2 204
-12 301 -88 600 -63 248 -85 405 -85 598 1 585 248 1019 702 1231 96 45 237
96 267 96 14 0 33 -67 106 -376 49 -206 91 -371 93 -366 1 5 -20 177 -48 381
-28 205 -48 376 -46 380 3 4 47 14 98 20 51 7 100 14 108 16 47 9 296 3 397
-10z"/>
<path d="M3611 5394 c0 -11 3 -14 6 -6 3 7 2 16 -1 19 -3 4 -6 -2 -5 -13z"/>
</g>
</svg>
